<svg width="283" height="48" viewBox="0 0 283 48" fill="none" xmlns="http://www.w3.org/2000/svg">
<path d="M40.8681 36.3316H21.358C20.1941 36.3316 19.2518 36.1669 18.4758 35.9474C17.7553 35.6731 17.2565 35.289 16.8131 34.7403C16.3697 34.1367 16.0371 33.3136 15.8708 32.271C15.8154 31.9966 15.8154 31.6125 15.76 31.3382C15.76 31.3382 15.8154 27.3874 15.8708 27.3874H40.6463C41.0898 27.3874 42.1983 27.1679 42.1983 25.4668V21.1319C42.1983 19.4309 41.0898 19.2662 40.6463 19.2662L12.0464 19.3211C10.439 19.4309 9.05339 20.2539 8.27742 21.6257C8.00029 22.0647 7.77858 22.5037 7.66773 22.9976L7.55688 29.9115V30.1858C7.61231 32.7648 7.88943 34.9597 8.27742 36.7705C8.77625 38.9654 9.60765 40.7762 10.6608 42.148C11.7693 43.5747 13.2104 44.5624 14.984 45.166C16.7022 45.8245 18.753 46.0988 21.1917 46.0988H40.8681C41.3669 46.0988 42.4754 45.9342 42.4754 44.2332V38.1972C42.4754 36.4962 41.3669 36.3316 40.8681 36.3316ZM40.9235 0.829102H9.05339C8.60998 0.829102 7.55688 1.04859 7.55688 2.80451V7.08456C7.55688 8.7856 8.60998 8.95022 9.05339 8.95022L40.9235 9.00509C41.3669 9.00509 42.4754 8.7856 42.4754 7.08456V2.74964C42.4754 1.04859 41.3669 0.829102 40.9235 0.829102Z" fill="#FFEE08"/>
<g style="mix-blend-mode:screen">
<path d="M40.8126 2.96912V2.74964C40.8126 1.04859 39.7595 0.829102 39.2607 0.829102H7.44605C6.94722 0.829102 5.89411 1.04859 5.89411 2.80451V2.96912H12.1019V4.06658H5.89411V7.08456C5.89411 7.1943 5.89413 7.35892 5.94955 7.46866H9.38597C9.55224 8.7856 10.4945 8.95022 10.8825 8.95022L42.7526 9.00509C43.1406 9.00509 44.0828 8.84048 44.2491 7.46866H40.8126C40.8126 7.35892 40.8126 7.24917 40.8126 7.08456V4.06658H47.0204V2.96912H40.8126ZM44.0828 41.9286V38.307C44.0828 37.4839 43.8057 37.0449 43.4731 36.7705H48.3506C48.0181 36.4413 47.5746 36.3864 47.3529 36.3864H27.7875C26.6235 36.3864 25.6813 36.2767 24.9608 36.0023C24.2402 35.7828 23.6859 35.3987 23.2425 34.7951C22.9654 34.411 22.7437 33.9172 22.5774 33.3685H18.0879C17.977 33.0941 17.8662 32.71 17.8108 32.3807C17.7553 32.0515 17.7553 31.7223 17.6999 31.393C17.6999 31.393 17.6999 31.0638 17.6999 30.57H38.2076C38.2076 30.1859 38.2076 29.6371 38.2076 29.1981H17.7553C17.7553 28.7043 17.7553 28.2104 17.7553 27.8812H21.1363C21.1363 27.6068 21.1363 27.4422 21.1363 27.4422H45.9119C46.2444 27.4422 46.8541 27.3874 47.1867 26.7838H43.8057C43.9165 26.5094 44.0828 26.1253 44.0828 25.5766V23.4914H46.6324V21.955H44.0828V21.2416C44.0828 19.5406 42.9743 19.3211 42.5309 19.3211L13.9309 19.376C12.3236 19.4857 10.9379 20.3637 10.1065 21.6806C10.0511 21.7904 10.0511 21.9001 9.99567 21.955H12.5453C12.379 22.3391 12.2127 22.6683 12.1019 23.1073V23.4914H9.55225L9.49683 26.7838H12.8778V27.8812H9.55225L9.49683 29.1981H14.9286V30.2956C14.9286 30.3505 14.9286 30.4602 14.9286 30.57H9.49683C9.55225 31.5577 9.60768 32.4905 9.66311 33.3685H14.2081C14.3189 34.6305 14.4852 35.728 14.7069 36.7705H9.82939C9.82939 36.7705 9.88481 36.8254 9.88481 36.8803C10.3282 38.8557 11.0488 40.5567 12.0464 41.9286H16.6468C16.7022 41.9834 16.7577 42.148 16.8685 42.2578C17.0902 42.5321 17.3119 42.7516 17.589 43.026H13.0441C14.0418 44.0137 15.2612 44.7819 16.6468 45.2758C18.3096 45.8794 20.4158 46.2086 22.8546 46.2086H42.5309C43.0297 46.2086 44.1382 45.9891 44.1382 44.2881V43.026H48.6278V41.9286H44.0828ZM12.5453 15.919H30.8914V16.5226H12.5453V15.919ZM29.7274 33.5331H42.032V34.1367H29.7274V33.5331ZM20.4158 11.3646H39.2053V12.2426H20.4158V11.3646Z" fill="#FD0130"/>
</g>
<g style="mix-blend-mode:screen">
<path d="M42.5206 41.9285H40.5807V38.307C40.5807 37.4839 40.3036 37.0449 39.971 36.7705H42.0772C41.9109 36.551 41.6892 36.4413 41.4675 36.3864H24.2854C23.7866 36.3864 23.2877 36.3864 22.8443 36.3316H21.4587C20.2947 36.3316 19.297 36.1669 18.5765 35.9474C17.856 35.6731 17.3017 35.289 16.8583 34.7403C16.6366 34.3562 16.4149 33.9172 16.2486 33.3684H14.5858C14.475 33.0941 14.3641 32.71 14.3087 32.3807L14.1978 31.393C14.1978 31.393 14.2533 28.9238 14.2533 27.8812H15.916V27.3874H40.6916C41.0241 27.3874 41.5784 27.2776 41.911 26.7838H40.3036C40.4699 26.5094 40.5807 26.1253 40.5807 25.5766V21.2416C40.5807 19.5406 39.4722 19.3211 39.0288 19.3211L11.5374 19.376C10.2071 19.6503 9.0432 20.4186 8.32266 21.6257C8.04553 22.0647 7.87924 22.5037 7.76839 22.9976L7.71295 26.7838H9.37574V27.8812H5.05251L4.99707 29.9115L5.05251 30.1858C5.05251 31.3382 5.16336 32.3807 5.21879 33.3684H10.706C10.8168 34.6305 10.9831 35.728 11.2048 36.7705H8.37806C8.82147 38.8557 9.59744 40.5567 10.5951 41.9285H13.1447C13.2002 41.9834 13.2556 42.148 13.3664 42.2578L14.087 43.026H11.5374C12.535 43.9588 13.699 44.727 15.0292 45.166C16.7474 45.8245 18.8536 46.0988 21.2924 46.0988H39.583C40.0819 45.9342 40.6361 45.4953 40.6361 44.2881V43.026H42.5206V41.9285ZM5.55134 2.80451V2.96912H8.98777V4.06658H5.55134V7.08456C5.55134 7.1943 5.55133 7.35892 5.60676 7.46866H6.27189C6.43816 8.7856 7.3804 8.95022 7.82381 8.95022L38.9734 9.00509C39.3614 9.00509 40.3036 8.7856 40.4699 7.46866H37.6986C37.6986 7.35892 37.754 7.24917 37.754 7.08456V4.06658H40.4699V2.96912H37.754V2.74964C37.754 1.04859 36.6454 0.829102 36.202 0.829102H7.10328C6.60444 0.829102 5.55134 1.04859 5.55134 2.80451Z" fill="#02D7F2"/>
</g>
<path d="M7.78969 8.95037L39.6598 9.00524C40.4357 9.00524 41.378 8.51139 41.5443 7.13958L41.5997 6.7006H38.1078V4.06672H44.3156V2.20106H38.1078C38.0524 0.225653 36.6113 0.0610352 36.1679 0.0610352H4.35326C3.90985 0.0610352 2.41333 0.280525 2.41333 2.42055V2.96927H8.62108V3.29851H2.41333V6.7006C2.41333 6.81034 2.41334 6.92009 2.46877 7.13958V7.46881H5.9606C6.29316 8.84062 7.4017 8.95037 7.78969 8.95037ZM40.6574 7.46881C40.4911 8.07241 39.9923 8.23702 39.6598 8.23702L7.78969 8.18215C7.4017 8.18215 6.95829 8.07241 6.73659 7.46881H40.6574ZM43.5396 2.96927V3.29851H9.39705V2.96927H43.5396ZM3.1893 2.20106C3.24473 1.10361 3.85442 0.829249 4.35326 0.829249H36.1679C36.6667 0.829249 37.2764 1.10361 37.3319 2.20106H3.1893ZM3.1893 6.7006V4.06672H37.3319V6.7006H3.1893ZM46.3109 36.7707L45.535 36.0573C45.0361 35.6732 44.5373 35.6184 44.2047 35.6184H24.6947C23.5862 35.6184 22.6439 35.5086 21.9788 35.2891C21.3137 35.0696 20.8703 34.6855 20.4823 34.1917C20.2052 33.8624 20.0389 33.4235 19.8726 32.8747L19.7618 32.6004H15.2722C15.2168 32.3809 15.1614 32.1614 15.1059 31.887C15.0505 31.6675 15.0505 31.3383 14.9951 31.1188V30.5701H35.5028V28.4301H15.0505C15.0505 28.2106 15.0505 28.046 15.0505 27.8814H18.3761L18.4315 27.4972C18.4315 27.4972 18.4315 27.4972 18.4315 27.4424H42.8191C43.1516 27.4424 43.983 27.3875 44.4264 26.5644L44.759 26.0157H41.2671C41.3225 25.7413 41.3226 25.467 41.3226 25.1926V23.4916H43.9276V21.1869H41.3226V20.8577C41.3226 18.7177 39.8815 18.553 39.4381 18.553L10.7827 18.6079C9.0645 18.7725 7.56797 19.6505 6.68115 21.132C6.68115 21.1869 6.62573 21.2418 6.62573 21.2967L6.23774 21.9551H8.84278C8.78736 22.1746 8.6765 22.449 8.62108 22.6685L6.07146 22.7233L6.01604 26.7839H9.39705V27.1131H6.07146L6.01604 29.1434H11.4478V29.8019H6.01604V30.186C6.07147 31.1737 6.1269 32.1065 6.18232 33.0394L6.23774 33.3686H10.7827C10.8381 34.3014 11.0044 35.1794 11.1153 36.0025H6.73659L6.29317 36.1122L6.40403 36.5512C6.84744 38.5815 7.62341 40.3374 8.62108 41.7092L8.73194 41.8738H13.3323C13.3877 41.9836 13.3877 42.0384 13.4432 42.0933C13.4986 42.1482 13.554 42.203 13.6094 42.2579H9.00905L9.67417 42.9164C10.7273 43.959 12.0021 44.7272 13.3877 45.221C15.1614 45.8795 17.2676 46.2087 19.7618 46.2087H39.4381C40.3803 46.2087 41.4334 45.6051 41.4334 43.9041V43.0261H45.9229V41.1605H41.3226V37.923C41.3226 37.4291 41.2671 37.045 41.1563 36.7707H46.3109ZM19.2075 33.3686C19.3738 33.8624 19.5955 34.3014 19.8726 34.6307C20.316 35.2891 20.9257 35.7281 21.7017 36.0025H11.9466C11.7804 35.2343 11.6141 34.3563 11.5587 33.3686H19.2075ZM34.7268 29.1434V29.8019H12.2238V29.1434H34.7268ZM17.6556 27.1131H10.173V26.7839H17.8218C17.711 26.8388 17.711 26.9485 17.6556 27.1131ZM43.1516 21.9551V22.7233H9.39705C9.45248 22.449 9.56332 22.2295 9.67417 21.9551H43.1516ZM7.56798 21.1869C8.34395 20.1443 9.5079 19.4859 10.8381 19.3761L39.4381 19.3213C39.9369 19.3213 40.602 19.5956 40.602 20.8577V21.1869H7.56798ZM6.79201 26.0157L6.84743 23.4916H40.602V25.1926C40.602 25.5218 40.4912 25.7962 40.4357 26.0157H6.79201ZM6.79201 28.4301V27.8814H14.2745C14.2745 28.046 14.2745 28.2106 14.2745 28.4301H6.79201ZM6.95828 32.6004C6.90285 31.9419 6.84744 31.2834 6.79201 30.5701H14.2191V31.1737C14.2745 31.4481 14.2746 31.7773 14.33 32.0517C14.3854 32.2163 14.4408 32.4358 14.4963 32.6004H6.95828ZM40.6574 43.9041C40.6574 45.1662 39.9923 45.4405 39.4381 45.4405H19.7618C17.3784 45.4405 15.3277 45.1113 13.6649 44.5077C12.6672 44.1785 11.7249 43.6846 10.949 43.0261H40.6574V43.9041ZM45.147 41.8738V42.2579H14.6625C14.5517 42.1482 14.4408 42.0384 14.33 41.8738H45.147ZM40.602 37.923V41.1605H9.11991C8.28851 39.9533 7.67883 38.4717 7.23542 36.7707H40.214C40.4357 36.9902 40.602 37.3743 40.602 37.923Z" fill="#02D7F2"/>
<path d="M103.3 13.916C103.3 13.971 103.3 14.026 103.3 14.081C103.3 14.136 103.3 14.1911 103.3 14.2461V13.916ZM104.355 43.7278L94.6374 27.2268C97.3582 26.8968 99.4682 25.7417 100.856 23.8716C102.411 21.6165 103.244 18.3713 103.3 14.081C103.244 9.79079 102.411 6.5456 100.856 4.29047C99.1906 1.92533 96.4143 0.770264 92.6385 0.770264H67.0408C66.5411 0.770264 65.4305 0.935275 65.4305 2.69538V7.04063C65.4305 8.74573 66.5411 8.91074 67.0408 8.91074H91.1948C92.6385 8.91074 93.5824 9.29577 94.1377 10.1208C94.7485 10.9459 95.0261 12.2659 95.0261 14.081C95.0261 15.8962 94.7485 17.2162 94.1377 18.0413C93.5824 18.8663 92.6385 19.2514 91.1948 19.2514H67.0408C66.5411 19.2514 65.4305 19.4164 65.4305 21.1215V44.2228C65.4305 45.9279 66.5411 46.1479 67.0408 46.1479H72.0937C72.5934 46.1479 73.6484 45.9279 73.6484 44.2228V27.3918H85.3645L95.4148 45.0479C95.6369 45.3779 95.8035 45.6529 96.0256 45.8179C96.3032 46.0379 96.6919 46.1479 97.1916 46.1479H103.3C103.966 46.1479 104.466 45.7079 104.577 45.0479C104.632 44.4978 104.577 44.0578 104.355 43.7278Z" fill="#FFEE08"/>
<g style="mix-blend-mode:screen">
<path d="M97.5247 23.8716C98.3576 22.6616 98.9684 21.2315 99.3571 19.5264H106.353C106.465 19.1413 106.576 18.6463 106.631 18.2063H99.024C99.2461 16.9962 99.3571 15.6761 99.3571 14.2461H105.243C105.243 14.1911 105.243 14.136 105.243 14.081C105.243 12.706 105.132 11.4409 104.965 10.3408H102.8C102.8 10.2858 102.8 10.2858 102.8 10.2858H100.357C100.134 8.80074 99.8013 7.53566 99.3571 6.38059H103.688C103.355 5.61055 102.966 4.89551 102.522 4.29047C102.022 3.52043 101.356 2.91539 100.579 2.42036H95.859C94.2487 1.3203 92.1942 0.770264 89.5845 0.770264H63.9868C63.5426 0.770264 62.5431 0.935274 62.4321 2.42036H67.1518C67.1518 2.53037 67.1518 2.58537 67.1518 2.69538V6.38059H62.7652V7.04063C62.7652 8.74573 63.8758 8.91074 64.3755 8.91074H88.5295C89.9732 8.91074 90.9726 9.29577 91.5279 10.1208C91.5279 10.1758 91.5834 10.2308 91.5834 10.2858H94.0266C94.0266 10.2858 94.0266 10.2858 94.0266 10.3408H96.1921C96.7474 11.1659 97.025 12.4309 97.025 14.081C97.025 14.136 96.9695 14.1911 96.9695 14.2461H91.1392C91.1392 15.9512 90.8061 17.2162 90.2508 18.0413C90.1953 18.0963 90.1398 18.1513 90.0842 18.2063H97.6913C97.0805 18.8663 96.1921 19.2514 94.8595 19.2514H70.7055C70.4834 19.2514 70.0947 19.2514 69.706 19.5264H62.7097C62.3765 19.8014 62.0989 20.2964 62.0989 21.1215V25.6317H67.3739V29.592H63.5426V36.0273H67.6516V37.4024H63.5426V44.2228C63.5426 44.4428 63.5426 44.6628 63.5981 44.8279H66.1524C66.3745 45.9829 67.2629 46.1479 67.7071 46.1479H72.76C73.2042 46.1479 74.0371 45.9829 74.2592 44.8279H71.705C71.7605 44.6628 71.7605 44.4428 71.7605 44.2228V37.4024H80.9224V36.0273H71.7605V29.592H75.5918V27.3918H87.3079L88.5295 29.592H84.6982L88.4184 36.0273H92.5274L93.2492 37.4024H89.1958L93.4713 44.8279H96.0256L96.1366 45.0479C96.3032 45.3779 96.5253 45.6529 96.6919 45.8179C96.9695 46.0379 97.3582 46.1479 97.9135 46.1479H103.966C104.632 46.1479 105.132 45.7079 105.243 45.0479C105.243 44.9929 105.243 44.9379 105.243 44.8279H102.689C102.689 44.3878 102.633 44.0028 102.467 43.7278L98.6908 37.4024H102.8L102.022 36.0273H97.9135L94.0821 29.592H97.9135L96.5253 27.2268C98.3021 27.0068 99.8013 26.4568 101.023 25.6317H95.7479C96.4142 25.1367 97.025 24.5317 97.5247 23.8716ZM77.9795 17.3262H66.3189V15.8962H77.9795V17.3262ZM83.1434 11.7159H72.871V11.0009H83.1434V11.7159ZM86.0863 41.3076H75.8139V40.5376H86.0863V41.3076Z" fill="#FD0130"/>
</g>
<g style="mix-blend-mode:screen">
<path d="M103.4 45.0479C103.4 44.9929 103.4 44.9379 103.4 44.8279H101.735C101.735 44.3878 101.679 44.0028 101.512 43.7278L97.7366 37.4024H99.4024L98.625 36.0273H96.9593L93.1835 29.592H94.8493L93.4611 27.2268C95.2379 27.0068 96.6816 26.4568 97.9032 25.6317H94.7937C95.46 25.1367 96.0708 24.5317 96.5706 23.8716C97.4035 22.6616 98.0142 21.2315 98.4029 19.5264H108.342C108.453 19.1413 108.564 18.6463 108.62 18.2063H98.1253C98.2919 16.9962 98.4029 15.6761 98.4029 14.2461H102.123C102.123 14.1911 102.123 14.136 102.123 14.081C102.123 12.706 102.012 11.4409 101.846 10.2858H99.4024C99.2358 8.80074 98.8471 7.53566 98.4029 6.38059H100.846C100.513 5.61055 100.124 4.89551 99.68 4.29047C99.1248 3.52043 98.514 2.91539 97.7366 2.42036H94.9048C93.35 1.3203 91.24 0.770264 88.6858 0.770264H65.8645C65.4203 0.770264 64.4208 0.935274 64.3097 2.42036H66.1976C66.1976 2.53037 66.1976 2.58537 66.1976 2.69538V6.38059H64.2542V7.04063C64.2542 8.74573 65.3647 8.91074 65.8645 8.91074H90.0185C91.4621 8.91074 92.4616 9.29577 93.0169 10.1208C93.0169 10.1758 93.0724 10.2308 93.1279 10.3408H95.2935C95.7932 11.1659 96.0708 12.4309 96.0708 14.081C96.0708 14.136 96.0708 14.1911 96.0708 14.2461H84.2437C84.1882 15.9512 83.9105 17.2162 83.3553 18.0413C83.2998 18.0963 83.2442 18.1513 83.1887 18.2063H96.7372C96.1819 18.8663 95.2379 19.2514 93.9608 19.2514H69.7513C69.5292 19.2514 69.1405 19.2514 68.8074 19.5264H64.865C64.5318 19.8014 64.2542 20.2964 64.2542 21.1215V25.6317H66.4197V29.592H64.2542V36.0273H66.6974V37.4024H64.2542V44.2228C64.2542 44.4428 64.3097 44.6628 64.3097 44.8279H65.2537C65.4758 45.9829 66.3642 46.1479 66.7529 46.1479H70.9729C71.3616 46.1479 72.1945 45.9829 72.4721 44.8279H70.8063C70.8063 44.6628 70.8618 44.4428 70.8618 44.2228V37.4024H72.5276V36.0273H70.8618V29.592H72.5276V27.3918H86.3537L87.6308 29.592H82.4113L86.0761 36.0273H91.5732L92.3506 37.4024H89.9074L94.1829 44.8279H95.0713L95.1824 45.0479C95.349 45.3779 95.5711 45.6529 95.7932 45.8179C96.0153 46.0379 96.404 46.1479 96.9593 46.1479H102.123C102.845 46.1479 103.289 45.7079 103.4 45.0479Z" fill="#02D7F2"/>
</g>
<path d="M97.335 14.2458H102.832L103.165 14.1358L103.221 13.6958C103.165 12.3757 103.11 11.0557 102.943 9.84558L102.888 9.51556H98.279C98.0569 8.36049 97.8348 7.31543 97.4461 6.38037H101.833L101.611 5.83034C101.277 5.00529 100.889 4.29025 100.444 3.68522C99.8892 2.91517 99.2229 2.25513 98.39 1.7051L98.279 1.6501H93.5592C91.8934 0.550032 89.7279 0 87.1737 0H61.576C60.6876 0 59.7437 0.550032 59.6326 1.98012L59.5771 2.42014H64.3523V5.61033H59.9658V6.65539C59.9658 8.74551 61.5205 8.91052 61.9647 8.91052H86.1187C87.4513 8.91052 88.2842 9.24055 88.784 9.95559L88.9505 10.2856H93.5592C93.9479 11.0557 94.17 12.1007 94.17 13.4758H88.3397V13.8608C88.3397 15.5109 88.0621 16.721 87.5068 17.436L87.6734 17.546V17.601L87.4513 17.491L86.8405 18.2061H94.059C93.6147 18.3711 93.0595 18.4811 92.4487 18.4811H68.2947C68.0726 18.4811 67.6284 18.5361 67.2397 18.7561H60.1879L60.0768 18.8661C59.5771 19.2511 59.2994 19.8562 59.2994 20.7362V25.5765H64.5744V28.8217H60.7431V36.0271H64.8521V36.5771H60.7431V43.8376C60.7431 44.0576 60.7431 44.2776 60.7986 44.4976L60.8542 44.8276H63.4639C63.8526 45.9827 64.9631 46.0927 65.2963 46.0927H70.3492C70.7379 46.0927 71.9595 45.9827 72.2371 44.4976L72.3481 44.0576H69.7384C69.7384 44.0026 69.7384 43.8926 69.7384 43.8376V37.3472H73.8474V35.2571H69.7384V29.5917H73.5697V27.3916L84.6195 27.3366L85.4524 28.8217H81.621L85.7855 36.0271H89.8945L90.1721 36.5771H86.1187L90.7829 44.8276H93.3927C93.5592 45.2127 93.8369 45.5427 94.059 45.7077C94.3921 45.9827 94.8363 46.0927 95.4471 46.0927H101.555C102.443 46.0927 103.054 45.5977 103.165 44.7176C103.221 44.6076 103.221 44.5526 103.221 44.4426V44.0576H100.611C100.611 43.7276 100.5 43.3975 100.389 43.1775L96.9463 37.3472H101.055L99.8337 35.2571H95.7247L92.3376 29.5917H96.169L94.7253 27.1166C96.3355 26.8416 97.7237 26.2915 98.8342 25.5215L99.7782 24.8065H94.3921C94.7253 24.4764 95.114 24.0914 95.3916 23.7064C96.2245 22.5513 96.8353 21.1762 97.224 19.5261H104.276L104.331 19.2511C104.442 18.8111 104.553 18.3711 104.609 17.8761L104.664 17.436H97.0574C97.224 16.446 97.2795 15.3459 97.335 14.2458ZM61.576 0.770045H87.1737C89.0061 0.770045 90.6163 1.04506 91.9489 1.6501H60.4655C60.6321 0.935056 61.1318 0.770045 61.576 0.770045ZM65.0742 2.42014H98.0569C98.7787 2.91517 99.334 3.4652 99.8337 4.12524C100.111 4.56527 100.389 5.0603 100.667 5.61033H65.0742V2.42014ZM89.3947 9.51556C88.784 8.5805 87.6734 8.14048 86.1187 8.14048H61.9647C61.4094 8.14048 60.7431 7.92047 60.7431 6.65539V6.38037H96.6687C97.0019 7.31543 97.2795 8.36049 97.5016 9.51556H89.3947ZM94.4477 10.2856H102.221C102.332 11.3307 102.388 12.3757 102.443 13.4758H94.9474C94.9474 12.2107 94.7808 11.1107 94.4477 10.2856ZM89.1171 14.2458H96.5576C96.5021 15.3459 96.4466 16.446 96.28 17.436H88.3953C88.8395 16.666 89.0616 15.5659 89.1171 14.2458ZM70.3492 45.3227H65.2963C64.9631 45.3227 64.5189 45.2677 64.2968 44.8276H71.3487C71.071 45.2677 70.6824 45.3227 70.3492 45.3227ZM68.961 43.8376C68.961 43.8926 68.961 44.0026 68.961 44.0576H61.5205C61.5205 44.0026 61.5205 43.8926 61.5205 43.8376V37.3472H68.961V43.8376ZM73.07 36.0271V36.5771H65.6294V36.0271H73.07ZM68.961 35.2571H61.5205V29.5917H68.961V35.2571ZM101.555 45.3227H95.4471C95.0029 45.3227 94.7253 45.2677 94.5587 45.1026C94.4477 45.0476 94.3366 44.9376 94.2811 44.8276H102.388C102.277 45.1576 101.944 45.3227 101.555 45.3227ZM99.7226 43.5626C99.7782 43.6726 99.8337 43.8376 99.8892 44.0576H91.2271L87.3958 37.3472H96.0579L99.7226 43.5626ZM99.3895 36.0271L99.7226 36.5771H91.0605L90.7829 36.0271H99.3895ZM94.8363 35.2571H86.2297L82.9537 29.5917H91.4492L94.8363 35.2571ZM94.059 26.4566L93.5037 26.5116L94.8363 28.8217H86.3408L85.1192 26.6216H72.7923V28.8217H65.3518V25.5765H97.1684C96.28 26.0165 95.225 26.2915 94.059 26.4566ZM94.7808 23.2664C94.3366 23.8714 93.7813 24.3664 93.1705 24.8065H60.0768V20.7362C60.0768 20.1862 60.1879 19.8012 60.4655 19.5261H96.4466C96.0579 21.0112 95.5026 22.2213 94.7808 23.2664ZM103.665 18.7561H94.6698C94.9474 18.5911 95.225 18.4261 95.4471 18.2061H103.776C103.721 18.3711 103.721 18.5911 103.665 18.7561Z" fill="#02D7F2"/>
<path d="M160.797 13.916C160.797 13.971 160.797 14.026 160.797 14.081C160.797 14.136 160.797 14.1911 160.797 14.2461V13.916ZM161.852 43.7278L152.135 27.2268C154.855 26.8968 156.965 25.7417 158.354 23.8716C159.908 21.6165 160.741 18.3713 160.797 14.081C160.741 9.79079 159.908 6.5456 158.354 4.29047C156.688 1.92533 153.912 0.770264 150.136 0.770264H124.538C124.038 0.770264 122.928 0.935275 122.928 2.69538V7.04063C122.928 8.74573 124.038 8.91074 124.538 8.91074H148.692C150.136 8.91074 151.08 9.29577 151.635 10.1208C152.246 10.9459 152.523 12.2659 152.523 14.081C152.523 15.8962 152.246 17.2162 151.635 18.0413C151.08 18.8663 150.136 19.2514 148.692 19.2514H124.538C124.038 19.2514 122.928 19.4164 122.928 21.1215V44.2228C122.928 45.9279 124.038 46.1479 124.538 46.1479H129.591C130.091 46.1479 131.146 45.9279 131.146 44.2228V27.3918H142.862L152.912 45.0479C153.134 45.3779 153.301 45.6529 153.523 45.8179C153.8 46.0379 154.189 46.1479 154.689 46.1479H160.797C161.463 46.1479 161.963 45.7079 162.074 45.0479C162.129 44.4978 162.074 44.0578 161.852 43.7278Z" fill="#FFEE08"/>
<g style="mix-blend-mode:screen">
<path d="M155.022 23.8716C155.855 22.6616 156.466 21.2315 156.854 19.5264H163.851C163.962 19.1413 164.073 18.6463 164.128 18.2063H156.521C156.743 16.9962 156.854 15.6761 156.854 14.2461H162.74C162.74 14.1911 162.74 14.136 162.74 14.081C162.74 12.706 162.629 11.4409 162.462 10.3408H160.297C160.297 10.2858 160.297 10.2858 160.297 10.2858H157.854C157.632 8.80074 157.299 7.53566 156.854 6.38059H161.185C160.852 5.61055 160.464 4.89551 160.019 4.29047C159.52 3.52043 158.853 2.91539 158.076 2.42036H153.356C151.746 1.3203 149.691 0.770264 147.082 0.770264H121.484C121.04 0.770264 120.04 0.935274 119.929 2.42036H124.649C124.649 2.53037 124.649 2.58537 124.649 2.69538V6.38059H120.262V7.04063C120.262 8.74573 121.373 8.91074 121.873 8.91074H146.027C147.47 8.91074 148.47 9.29577 149.025 10.1208C149.025 10.1758 149.081 10.2308 149.081 10.2858H151.524C151.524 10.2858 151.524 10.2858 151.524 10.3408H153.689C154.245 11.1659 154.522 12.4309 154.522 14.081C154.522 14.136 154.467 14.1911 154.467 14.2461H148.636C148.636 15.9512 148.303 17.2162 147.748 18.0413C147.692 18.0963 147.637 18.1513 147.581 18.2063H155.189C154.578 18.8663 153.689 19.2514 152.357 19.2514H128.203C127.981 19.2514 127.592 19.2514 127.203 19.5264H120.207C119.874 19.8014 119.596 20.2964 119.596 21.1215V25.6317H124.871V29.592H121.04V36.0273H125.149V37.4024H121.04V44.2228C121.04 44.4428 121.04 44.6628 121.095 44.8279H123.65C123.872 45.9829 124.76 46.1479 125.204 46.1479H130.257C130.701 46.1479 131.534 45.9829 131.756 44.8279H129.202C129.258 44.6628 129.258 44.4428 129.258 44.2228V37.4024H138.42V36.0273H129.258V29.592H133.089V27.3918H144.805L146.027 29.592H142.195L145.916 36.0273H150.025L150.746 37.4024H146.693L150.969 44.8279H153.523L153.634 45.0479C153.8 45.3779 154.022 45.6529 154.189 45.8179C154.467 46.0379 154.855 46.1479 155.411 46.1479H161.463C162.129 46.1479 162.629 45.7079 162.74 45.0479C162.74 44.9929 162.74 44.9379 162.74 44.8279H160.186C160.186 44.3878 160.13 44.0028 159.964 43.7278L156.188 37.4024H160.297L159.52 36.0273H155.411L151.579 29.592H155.411L154.022 27.2268C155.799 27.0068 157.299 26.4568 158.52 25.6317H153.245C153.911 25.1367 154.522 24.5317 155.022 23.8716ZM135.477 17.3262H123.816V15.8962H135.477V17.3262ZM140.641 11.7159H130.368V11.0009H140.641V11.7159ZM143.584 41.3076H133.311V40.5376H143.584V41.3076Z" fill="#FD0130"/>
</g>
<g style="mix-blend-mode:screen">
<path d="M160.897 45.0479C160.897 44.9929 160.897 44.9379 160.897 44.8279H159.232C159.232 44.3878 159.176 44.0028 159.01 43.7278L155.234 37.4024H156.9L156.122 36.0273H154.456L150.681 29.592H152.346L150.958 27.2268C152.735 27.0068 154.179 26.4568 155.4 25.6317H152.291C152.957 25.1367 153.568 24.5317 154.068 23.8716C154.901 22.6616 155.511 21.2315 155.9 19.5264H165.839C165.95 19.1413 166.061 18.6463 166.117 18.2063H155.622C155.789 16.9962 155.9 15.6761 155.9 14.2461H159.62C159.62 14.1911 159.62 14.136 159.62 14.081C159.62 12.706 159.509 11.4409 159.343 10.2858H156.9C156.733 8.80074 156.344 7.53566 155.9 6.38059H158.343C158.01 5.61055 157.621 4.89551 157.177 4.29047C156.622 3.52043 156.011 2.91539 155.234 2.42036H152.402C150.847 1.3203 148.737 0.770264 146.183 0.770264H123.362C122.917 0.770264 121.918 0.935274 121.807 2.42036H123.695C123.695 2.53037 123.695 2.58537 123.695 2.69538V6.38059H121.751V7.04063C121.751 8.74573 122.862 8.91074 123.362 8.91074H147.516C148.959 8.91074 149.959 9.29577 150.514 10.1208C150.514 10.1758 150.57 10.2308 150.625 10.3408H152.791C153.29 11.1659 153.568 12.4309 153.568 14.081C153.568 14.136 153.568 14.1911 153.568 14.2461H141.741C141.685 15.9512 141.408 17.2162 140.852 18.0413C140.797 18.0963 140.741 18.1513 140.686 18.2063H154.234C153.679 18.8663 152.735 19.2514 151.458 19.2514H127.249C127.026 19.2514 126.638 19.2514 126.305 19.5264H122.362C122.029 19.8014 121.751 20.2964 121.751 21.1215V25.6317H123.917V29.592H121.751V36.0273H124.195V37.4024H121.751V44.2228C121.751 44.4428 121.807 44.6628 121.807 44.8279H122.751C122.973 45.9829 123.861 46.1479 124.25 46.1479H128.47C128.859 46.1479 129.692 45.9829 129.969 44.8279H128.304C128.304 44.6628 128.359 44.4428 128.359 44.2228V37.4024H130.025V36.0273H128.359V29.592H130.025V27.3918H143.851L145.128 29.592H139.908L143.573 36.0273H149.07L149.848 37.4024H147.405L151.68 44.8279H152.568L152.68 45.0479C152.846 45.3779 153.068 45.6529 153.29 45.8179C153.512 46.0379 153.901 46.1479 154.456 46.1479H159.62C160.342 46.1479 160.786 45.7079 160.897 45.0479Z" fill="#02D7F2"/>
</g>
<path d="M154.832 14.2458H160.329L160.662 14.1358L160.718 13.6958C160.662 12.3757 160.607 11.0557 160.44 9.84558L160.385 9.51556H155.776C155.554 8.36049 155.332 7.31543 154.943 6.38037H159.33L159.108 5.83034C158.775 5.00529 158.386 4.29025 157.942 3.68522C157.386 2.91517 156.72 2.25513 155.887 1.7051L155.776 1.6501H151.056C149.391 0.550032 147.225 0 144.671 0H119.073C118.185 0 117.241 0.550032 117.13 1.98012L117.074 2.42014H121.85V5.61033H117.463V6.65539C117.463 8.74551 119.018 8.91052 119.462 8.91052H143.616C144.948 8.91052 145.781 9.24055 146.281 9.95559L146.448 10.2856H151.056C151.445 11.0557 151.667 12.1007 151.667 13.4758H145.837V13.8608C145.837 15.5109 145.559 16.721 145.004 17.436L145.171 17.546V17.601L144.948 17.491L144.338 18.2061H151.556C151.112 18.3711 150.557 18.4811 149.946 18.4811H125.792C125.57 18.4811 125.126 18.5361 124.737 18.7561H117.685L117.574 18.8661C117.074 19.2511 116.797 19.8562 116.797 20.7362V25.5765H122.072V28.8217H118.24V36.0271H122.349V36.5771H118.24V43.8376C118.24 44.0576 118.24 44.2776 118.296 44.4976L118.351 44.8276H120.961C121.35 45.9827 122.46 46.0927 122.793 46.0927H127.846C128.235 46.0927 129.457 45.9827 129.734 44.4976L129.845 44.0576H127.236C127.236 44.0026 127.236 43.8926 127.236 43.8376V37.3472H131.345V35.2571H127.236V29.5917H131.067V27.3916L142.117 27.3366L142.95 28.8217H139.118L143.283 36.0271H147.392L147.669 36.5771H143.616L148.28 44.8276H150.89C151.056 45.2127 151.334 45.5427 151.556 45.7077C151.889 45.9827 152.333 46.0927 152.944 46.0927H159.052C159.941 46.0927 160.551 45.5977 160.662 44.7176C160.718 44.6076 160.718 44.5526 160.718 44.4426V44.0576H158.108C158.108 43.7276 157.997 43.3975 157.886 43.1775L154.443 37.3472H158.552L157.331 35.2571H153.222L149.835 29.5917H153.666L152.222 27.1166C153.833 26.8416 155.221 26.2915 156.331 25.5215L157.275 24.8065H151.889C152.222 24.4764 152.611 24.0914 152.889 23.7064C153.722 22.5513 154.332 21.1762 154.721 19.5261H161.773L161.828 19.2511C161.94 18.8111 162.051 18.3711 162.106 17.8761L162.162 17.436H154.555C154.721 16.446 154.777 15.3459 154.832 14.2458ZM119.073 0.770045H144.671C146.503 0.770045 148.113 1.04506 149.446 1.6501H117.963C118.129 0.935056 118.629 0.770045 119.073 0.770045ZM122.571 2.42014H155.554C156.276 2.91517 156.831 3.4652 157.331 4.12524C157.608 4.56527 157.886 5.0603 158.164 5.61033H122.571V2.42014ZM146.892 9.51556C146.281 8.5805 145.171 8.14048 143.616 8.14048H119.462C118.907 8.14048 118.24 7.92047 118.24 6.65539V6.38037H154.166C154.499 7.31543 154.777 8.36049 154.999 9.51556H146.892ZM151.945 10.2856H159.718C159.83 11.3307 159.885 12.3757 159.941 13.4758H152.445C152.445 12.2107 152.278 11.1107 151.945 10.2856ZM146.614 14.2458H154.055C153.999 15.3459 153.944 16.446 153.777 17.436H145.892C146.337 16.666 146.559 15.5659 146.614 14.2458ZM127.846 45.3227H122.793C122.46 45.3227 122.016 45.2677 121.794 44.8276H128.846C128.568 45.2677 128.18 45.3227 127.846 45.3227ZM126.458 43.8376C126.458 43.8926 126.458 44.0026 126.458 44.0576H119.018C119.018 44.0026 119.018 43.8926 119.018 43.8376V37.3472H126.458V43.8376ZM130.567 36.0271V36.5771H123.127V36.0271H130.567ZM126.458 35.2571H119.018V29.5917H126.458V35.2571ZM159.052 45.3227H152.944C152.5 45.3227 152.222 45.2677 152.056 45.1026C151.945 45.0476 151.834 44.9376 151.778 44.8276H159.885C159.774 45.1576 159.441 45.3227 159.052 45.3227ZM157.22 43.5626C157.275 43.6726 157.331 43.8376 157.386 44.0576H148.724L144.893 37.3472H153.555L157.22 43.5626ZM156.887 36.0271L157.22 36.5771H148.558L148.28 36.0271H156.887ZM152.333 35.2571H143.727L140.451 29.5917H148.946L152.333 35.2571ZM151.556 26.4566L151.001 26.5116L152.333 28.8217H143.838L142.616 26.6216H130.29V28.8217H122.849V25.5765H154.666C153.777 26.0165 152.722 26.2915 151.556 26.4566ZM152.278 23.2664C151.834 23.8714 151.278 24.3664 150.668 24.8065H117.574V20.7362C117.574 20.1862 117.685 19.8012 117.963 19.5261H153.944C153.555 21.0112 153 22.2213 152.278 23.2664ZM161.162 18.7561H152.167C152.445 18.5911 152.722 18.4261 152.944 18.2061H161.273C161.218 18.3711 161.218 18.5911 161.162 18.7561Z" fill="#02D7F2"/>
<path d="M277.046 13.916C277.046 13.971 277.046 14.026 277.046 14.081C277.046 14.136 277.046 14.1911 277.046 14.2461V13.916ZM278.101 43.7278L268.384 27.2268C271.105 26.8968 273.215 25.7417 274.603 23.8716C276.158 21.6165 276.99 18.3713 277.046 14.081C276.99 9.79079 276.158 6.5456 274.603 4.29047C272.937 1.92533 270.161 0.770264 266.385 0.770264H240.787C240.288 0.770264 239.177 0.935275 239.177 2.69538V7.04063C239.177 8.74573 240.288 8.91074 240.787 8.91074H264.941C266.385 8.91074 267.329 9.29577 267.884 10.1208C268.495 10.9459 268.773 12.2659 268.773 14.081C268.773 15.8962 268.495 17.2162 267.884 18.0413C267.329 18.8663 266.385 19.2514 264.941 19.2514H240.787C240.288 19.2514 239.177 19.4164 239.177 21.1215V44.2228C239.177 45.9279 240.288 46.1479 240.787 46.1479H245.84C246.34 46.1479 247.395 45.9279 247.395 44.2228V27.3918H259.111L269.161 45.0479C269.383 45.3779 269.55 45.6529 269.772 45.8179C270.05 46.0379 270.438 46.1479 270.938 46.1479H277.046C277.712 46.1479 278.212 45.7079 278.323 45.0479C278.379 44.4978 278.323 44.0578 278.101 43.7278Z" fill="#FFEE08"/>
<g style="mix-blend-mode:screen">
<path d="M271.271 23.8716C272.104 22.6616 272.715 21.2315 273.104 19.5264H280.1C280.211 19.1413 280.322 18.6463 280.378 18.2063H272.77C272.993 16.9962 273.104 15.6761 273.104 14.2461H278.989C278.989 14.1911 278.989 14.136 278.989 14.081C278.989 12.706 278.878 11.4409 278.712 10.3408H276.546C276.546 10.2858 276.546 10.2858 276.546 10.2858H274.103C273.881 8.80074 273.548 7.53566 273.104 6.38059H277.435C277.102 5.61055 276.713 4.89551 276.269 4.29047C275.769 3.52043 275.103 2.91539 274.325 2.42036H269.605C267.995 1.3203 265.941 0.770264 263.331 0.770264H237.733C237.289 0.770264 236.29 0.935274 236.179 2.42036H240.898C240.898 2.53037 240.898 2.58537 240.898 2.69538V6.38059H236.512V7.04063C236.512 8.74573 237.622 8.91074 238.122 8.91074H262.276C263.72 8.91074 264.719 9.29577 265.274 10.1208C265.274 10.1758 265.33 10.2308 265.33 10.2858H267.773C267.773 10.2858 267.773 10.2858 267.773 10.3408H269.939C270.494 11.1659 270.772 12.4309 270.772 14.081C270.772 14.136 270.716 14.1911 270.716 14.2461H264.886C264.886 15.9512 264.553 17.2162 263.997 18.0413C263.942 18.0963 263.886 18.1513 263.831 18.2063H271.438C270.827 18.8663 269.939 19.2514 268.606 19.2514H244.452C244.23 19.2514 243.841 19.2514 243.453 19.5264H236.456C236.123 19.8014 235.845 20.2964 235.845 21.1215V25.6317H241.12V29.592H237.289V36.0273H241.398V37.4024H237.289V44.2228C237.289 44.4428 237.289 44.6628 237.345 44.8279H239.899C240.121 45.9829 241.009 46.1479 241.454 46.1479H246.507C246.951 46.1479 247.784 45.9829 248.006 44.8279H245.451C245.507 44.6628 245.507 44.4428 245.507 44.2228V37.4024H254.669V36.0273H245.507V29.592H249.338V27.3918H261.054L262.276 29.592H258.445L262.165 36.0273H266.274L266.996 37.4024H262.942L267.218 44.8279H269.772L269.883 45.0479C270.05 45.3779 270.272 45.6529 270.438 45.8179C270.716 46.0379 271.105 46.1479 271.66 46.1479H277.712C278.379 46.1479 278.878 45.7079 278.989 45.0479C278.989 44.9929 278.989 44.9379 278.989 44.8279H276.435C276.435 44.3878 276.38 44.0028 276.213 43.7278L272.437 37.4024H276.546L275.769 36.0273H271.66L267.829 29.592H271.66L270.272 27.2268C272.049 27.0068 273.548 26.4568 274.769 25.6317H269.494C270.161 25.1367 270.772 24.5317 271.271 23.8716ZM251.726 17.3262H240.065V15.8962H251.726V17.3262ZM256.89 11.7159H246.618V11.0009H256.89V11.7159ZM259.833 41.3076H249.56V40.5376H259.833V41.3076Z" fill="#FD0130"/>
</g>
<g style="mix-blend-mode:screen">
<path d="M277.147 45.0479C277.147 44.9929 277.147 44.9379 277.147 44.8279H275.481C275.481 44.3878 275.426 44.0028 275.259 43.7278L271.483 37.4024H273.149L272.372 36.0273H270.706L266.93 29.592H268.596L267.208 27.2268C268.984 27.0068 270.428 26.4568 271.65 25.6317H268.54C269.207 25.1367 269.817 24.5317 270.317 23.8716C271.15 22.6616 271.761 21.2315 272.149 19.5264H282.089C282.2 19.1413 282.311 18.6463 282.366 18.2063H271.872C272.038 16.9962 272.149 15.6761 272.149 14.2461H275.87C275.87 14.1911 275.87 14.136 275.87 14.081C275.87 12.706 275.759 11.4409 275.592 10.2858H273.149C272.982 8.80074 272.594 7.53566 272.149 6.38059H274.593C274.259 5.61055 273.871 4.89551 273.427 4.29047C272.871 3.52043 272.261 2.91539 271.483 2.42036H268.651C267.097 1.3203 264.987 0.770264 262.432 0.770264H239.611C239.167 0.770264 238.167 0.935274 238.056 2.42036H239.944C239.944 2.53037 239.944 2.58537 239.944 2.69538V6.38059H238.001V7.04063C238.001 8.74573 239.111 8.91074 239.611 8.91074H263.765C265.209 8.91074 266.208 9.29577 266.763 10.1208C266.763 10.1758 266.819 10.2308 266.874 10.3408H269.04C269.54 11.1659 269.817 12.4309 269.817 14.081C269.817 14.136 269.817 14.1911 269.817 14.2461H257.99C257.935 15.9512 257.657 17.2162 257.102 18.0413C257.046 18.0963 256.991 18.1513 256.935 18.2063H270.484C269.928 18.8663 268.984 19.2514 267.707 19.2514H243.498C243.276 19.2514 242.887 19.2514 242.554 19.5264H238.612C238.278 19.8014 238.001 20.2964 238.001 21.1215V25.6317H240.166V29.592H238.001V36.0273H240.444V37.4024H238.001V44.2228C238.001 44.4428 238.056 44.6628 238.056 44.8279H239C239.222 45.9829 240.111 46.1479 240.499 46.1479H244.719C245.108 46.1479 245.941 45.9829 246.219 44.8279H244.553C244.553 44.6628 244.608 44.4428 244.608 44.2228V37.4024H246.274V36.0273H244.608V29.592H246.274V27.3918H260.1L261.377 29.592H256.158L259.823 36.0273H265.32L266.097 37.4024H263.654L267.929 44.8279H268.818L268.929 45.0479C269.096 45.3779 269.318 45.6529 269.54 45.8179C269.762 46.0379 270.151 46.1479 270.706 46.1479H275.87C276.592 46.1479 277.036 45.7079 277.147 45.0479Z" fill="#02D7F2"/>
</g>
<path d="M271.081 14.2458H276.579L276.912 14.1358L276.967 13.6958C276.912 12.3757 276.856 11.0557 276.69 9.84558L276.634 9.51556H272.025C271.803 8.36049 271.581 7.31543 271.193 6.38037H275.579L275.357 5.83034C275.024 5.00529 274.635 4.29025 274.191 3.68522C273.636 2.91517 272.969 2.25513 272.136 1.7051L272.025 1.6501H267.306C265.64 0.550032 263.474 0 260.92 0H235.322C234.434 0 233.49 0.550032 233.379 1.98012L233.324 2.42014H238.099V5.61033H233.712V6.65539C233.712 8.74551 235.267 8.91052 235.711 8.91052H259.865C261.198 8.91052 262.031 9.24055 262.53 9.95559L262.697 10.2856H267.306C267.694 11.0557 267.916 12.1007 267.916 13.4758H262.086V13.8608C262.086 15.5109 261.809 16.721 261.253 17.436L261.42 17.546V17.601L261.198 17.491L260.587 18.2061H267.805C267.361 18.3711 266.806 18.4811 266.195 18.4811H242.041C241.819 18.4811 241.375 18.5361 240.986 18.7561H233.934L233.823 18.8661C233.324 19.2511 233.046 19.8562 233.046 20.7362V25.5765H238.321V28.8217H234.49V36.0271H238.599V36.5771H234.49V43.8376C234.49 44.0576 234.49 44.2776 234.545 44.4976L234.601 44.8276H237.21C237.599 45.9827 238.71 46.0927 239.043 46.0927H244.096C244.484 46.0927 245.706 45.9827 245.984 44.4976L246.095 44.0576H243.485C243.485 44.0026 243.485 43.8926 243.485 43.8376V37.3472H247.594V35.2571H243.485V29.5917H247.316V27.3916L258.366 27.3366L259.199 28.8217H255.368L259.532 36.0271H263.641L263.919 36.5771H259.865L264.529 44.8276H267.139C267.306 45.2127 267.583 45.5427 267.805 45.7077C268.139 45.9827 268.583 46.0927 269.194 46.0927H275.301C276.19 46.0927 276.801 45.5977 276.912 44.7176C276.967 44.6076 276.967 44.5526 276.967 44.4426V44.0576H274.358C274.358 43.7276 274.246 43.3975 274.135 43.1775L270.693 37.3472H274.802L273.58 35.2571H269.471L266.084 29.5917H269.915L268.472 27.1166C270.082 26.8416 271.47 26.2915 272.581 25.5215L273.525 24.8065H268.139C268.472 24.4764 268.86 24.0914 269.138 23.7064C269.971 22.5513 270.582 21.1762 270.97 19.5261H278.022L278.078 19.2511C278.189 18.8111 278.3 18.3711 278.355 17.8761L278.411 17.436H270.804C270.97 16.446 271.026 15.3459 271.081 14.2458ZM235.322 0.770045H260.92C262.753 0.770045 264.363 1.04506 265.695 1.6501H234.212C234.379 0.935056 234.878 0.770045 235.322 0.770045ZM238.821 2.42014H271.803C272.525 2.91517 273.08 3.4652 273.58 4.12524C273.858 4.56527 274.135 5.0603 274.413 5.61033H238.821V2.42014ZM263.141 9.51556C262.53 8.5805 261.42 8.14048 259.865 8.14048H235.711C235.156 8.14048 234.49 7.92047 234.49 6.65539V6.38037H270.415C270.748 7.31543 271.026 8.36049 271.248 9.51556H263.141ZM268.194 10.2856H275.968C276.079 11.3307 276.134 12.3757 276.19 13.4758H268.694C268.694 12.2107 268.527 11.1107 268.194 10.2856ZM262.864 14.2458H270.304C270.249 15.3459 270.193 16.446 270.026 17.436H262.142C262.586 16.666 262.808 15.5659 262.864 14.2458ZM244.096 45.3227H239.043C238.71 45.3227 238.265 45.2677 238.043 44.8276H245.095C244.817 45.2677 244.429 45.3227 244.096 45.3227ZM242.707 43.8376C242.707 43.8926 242.707 44.0026 242.707 44.0576H235.267C235.267 44.0026 235.267 43.8926 235.267 43.8376V37.3472H242.707V43.8376ZM246.816 36.0271V36.5771H239.376V36.0271H246.816ZM242.707 35.2571H235.267V29.5917H242.707V35.2571ZM275.301 45.3227H269.194C268.749 45.3227 268.472 45.2677 268.305 45.1026C268.194 45.0476 268.083 44.9376 268.028 44.8276H276.134C276.023 45.1576 275.69 45.3227 275.301 45.3227ZM273.469 43.5626C273.525 43.6726 273.58 43.8376 273.636 44.0576H264.974L261.142 37.3472H269.804L273.469 43.5626ZM273.136 36.0271L273.469 36.5771H264.807L264.529 36.0271H273.136ZM268.583 35.2571H259.976L256.7 29.5917H265.196L268.583 35.2571ZM267.805 26.4566L267.25 26.5116L268.583 28.8217H260.087L258.866 26.6216H246.539V28.8217H239.098V25.5765H270.915C270.026 26.0165 268.971 26.2915 267.805 26.4566ZM268.527 23.2664C268.083 23.8714 267.528 24.3664 266.917 24.8065H233.823V20.7362C233.823 20.1862 233.934 19.8012 234.212 19.5261H270.193C269.804 21.0112 269.249 22.2213 268.527 23.2664ZM277.411 18.7561H268.416C268.694 18.5911 268.971 18.4261 269.194 18.2061H277.523C277.467 18.3711 277.467 18.5911 277.411 18.7561Z" fill="#02D7F2"/>
<path d="M187.427 46.1814L207.545 46.1814C209.977 46.1814 212.077 45.8522 213.79 45.2486C215.559 44.5901 216.996 43.5475 218.046 42.1757C219.151 40.8039 219.98 38.9931 220.478 36.7982C220.975 34.6582 221.196 32.0243 221.196 29.0063L221.196 18.1416C221.196 15.0687 220.975 12.4349 220.478 10.24C219.98 8.09994 219.151 6.28915 218.046 4.86247C216.941 3.49066 215.504 2.44808 213.79 1.84449C212.077 1.24089 209.977 0.911654 207.545 0.911654L187.427 0.911652C186.985 0.911652 185.879 1.13114 185.879 2.83218L185.879 7.16711C185.879 8.86815 186.985 9.08764 187.427 9.08764L207.269 9.08764C208.429 9.08764 209.424 9.19739 210.143 9.47175C210.861 9.69124 211.358 10.0753 211.801 10.6789C212.243 11.2277 212.519 12.0508 212.74 13.0933C212.906 14.1908 213.017 15.5626 213.017 17.2088L213.017 29.994C213.017 31.6402 212.906 33.012 212.74 34.0546C212.519 35.0972 212.243 35.8654 211.801 36.469C211.358 37.0726 210.861 37.4567 210.143 37.6762C209.424 37.9505 208.429 38.0603 207.269 38.0603L187.427 38.0603C186.985 38.0603 185.879 38.2798 185.879 40.0357L185.879 44.2609C185.879 45.9619 186.985 46.1814 187.427 46.1814Z" fill="#FFEE08"/>
<g style="mix-blend-mode:screen">
<path d="M211.358 37.6762C210.64 37.9505 209.645 38.0603 208.54 38.0603L188.698 38.0603C188.201 38.0603 187.151 38.2798 187.151 40.0357L187.151 41.2977L180.131 41.2977L180.131 42.4501L182.232 42.4501L182.232 44.2609C182.232 45.1388 182.508 45.5778 182.84 45.8522L190.135 45.8522C190.467 46.1265 190.854 46.1814 191.075 46.1814L211.193 46.1814C212.574 46.1814 213.846 46.0716 215.006 45.8522L205.224 45.8522C206.108 45.6875 206.882 45.4681 207.655 45.2486C209.258 44.645 210.585 43.6573 211.635 42.4501L209.535 42.4501C209.59 42.3403 209.7 42.2306 209.756 42.1757C209.977 41.9013 210.198 41.5721 210.364 41.2977L219.925 41.2977C220.699 40.0357 221.307 38.5541 221.694 36.7982C221.749 36.5787 221.804 36.3044 221.86 36.0849L214.785 36.0849C215.006 35.0423 215.117 33.89 215.227 32.6279L221.694 32.6279C221.804 31.4756 221.86 30.2684 221.86 29.0063L221.86 27.0858L216.609 27.0858L216.609 25.9335L220.699 25.9335L220.699 18.1416C220.699 17.8124 220.699 17.4831 220.699 17.2088L217.714 17.2088C217.714 16.0016 217.659 14.8492 217.549 13.7518L215.946 13.7518C215.835 12.4897 215.669 11.3374 215.393 10.24C215.061 8.81328 214.619 7.55122 214.011 6.45377L219.096 6.45377C218.82 5.85017 218.488 5.35632 218.157 4.86247C217.549 4.14913 216.885 3.54553 216.167 2.99681L211.635 2.99681C210.972 2.55783 210.253 2.17372 209.424 1.89936L214.951 1.89936C214.896 1.84449 214.896 1.84449 214.84 1.84449C213.182 1.24089 211.082 0.911654 208.65 0.911654L188.532 0.911653C188.145 0.911652 187.427 1.0214 187.151 1.89936L181.624 1.89936C181.568 2.11885 181.458 2.44808 181.458 2.83218L181.458 2.9968L185.99 2.9968L185.99 6.45376L180.85 6.45376L180.85 7.16711C180.85 8.86815 181.9 9.08764 182.397 9.08764L202.239 9.08764C203.4 9.08764 204.339 9.19739 205.058 9.47175C205.776 9.69124 206.329 10.0753 206.716 10.6789C207.158 11.2277 207.49 12.0508 207.655 13.0933C207.711 13.3128 207.711 13.5323 207.766 13.7518L209.369 13.7518C209.479 14.7395 209.535 15.8918 209.535 17.2088L212.519 17.2088L212.519 25.9335L198.812 25.9335L198.812 27.0858L213.624 27.0858L213.624 29.994C213.624 30.9817 213.624 31.8597 213.514 32.6279L207.103 32.6279C207.047 33.1766 206.992 33.6156 206.882 34.0546C206.771 34.8777 206.495 35.5361 206.218 36.0849L213.293 36.0849C213.182 36.1946 213.127 36.3592 213.017 36.469C212.63 37.0726 212.077 37.4567 211.358 37.6762ZM197.596 13.0933L185.548 13.0933L185.548 12.4897L197.596 12.4897L197.596 13.0933ZM208.263 30.2135L196.159 30.2135L196.159 29.6099L208.263 29.6099L208.263 30.2135ZM210.861 17.2088L204.173 17.2088L204.173 16.6052L210.861 16.6052L210.861 17.2088Z" fill="#FD0130"/>
</g>
<g style="mix-blend-mode:screen">
<path d="M192.854 1.89936L189.703 1.89936C189.593 2.11885 189.537 2.44808 189.537 2.83218L189.537 2.9968L191.693 2.9968L191.693 6.45376L189.537 6.45376L189.537 7.16711C189.537 8.86815 190.643 9.08764 191.085 9.08764L210.927 9.08764C212.087 9.08764 213.082 9.19739 213.801 9.47175C214.519 9.69124 215.016 10.0753 215.459 10.6789C215.846 11.2277 216.177 12.0508 216.343 13.0933C216.564 14.1908 216.675 15.5626 216.675 17.2088L216.675 19.239L210.374 19.239L210.374 24.9458L216.675 24.9458L216.675 27.0858L219.383 27.0858L219.383 29.994C219.383 30.9817 219.327 31.8597 219.272 32.6279L208.605 32.6279C208.55 33.1766 208.495 33.6156 208.384 34.0546C208.274 34.8777 208.053 35.5361 207.721 36.0849L218.996 36.0849C218.941 36.1946 218.83 36.3592 218.775 36.469C218.333 37.0726 217.835 37.4567 217.117 37.6762C216.343 37.9505 215.403 38.0603 214.243 38.0603L194.401 38.0603C193.959 38.0603 192.854 38.2798 192.854 40.0357L192.854 41.2977L189.537 41.2977L189.537 44.2609C189.537 45.1388 189.814 45.5778 190.145 45.8522L195.838 45.8522C196.17 46.1265 196.557 46.1814 196.833 46.1814L211.203 46.1814C212.64 46.1814 213.856 46.0716 215.072 45.8522L210.982 45.8522C211.811 45.6875 212.64 45.4681 213.358 45.2486C214.961 44.645 216.343 43.6573 217.393 42.4501L215.293 42.4501C215.348 42.3403 215.459 42.2306 215.514 42.1757C215.735 41.9013 215.901 41.5721 216.122 41.2977L222.312 41.2977C223.086 40.0357 223.694 38.5541 224.136 36.7982C224.191 36.5787 224.191 36.3044 224.246 36.0849L220.543 36.0849C220.709 35.0423 220.875 33.89 220.986 32.6279L224.689 32.6279C224.799 31.4756 224.854 30.2684 224.854 29.0063L224.854 27.0858L222.312 27.0858L222.312 25.9335L224.854 25.9335L224.854 18.1416C224.854 17.8124 224.854 17.4831 224.854 17.2088L223.473 17.2088C223.417 16.0016 223.362 14.8492 223.307 13.7518L221.704 13.7518C221.538 12.4897 221.372 11.3374 221.151 10.24C220.82 8.81328 220.322 7.55122 219.714 6.45377L222.699 6.45377C222.423 5.85017 222.091 5.35632 221.704 4.86247C221.151 4.14913 220.488 3.54553 219.714 2.99681L217.393 2.99681C216.73 2.55783 216.011 2.17372 215.182 1.89936L217.504 1.89936C217.504 1.84449 217.448 1.84449 217.448 1.84449C215.735 1.24089 213.635 0.911654 211.203 0.911654L194.235 0.911653C193.904 0.911653 193.185 1.0214 192.854 1.89936Z" fill="#02D7F2"/>
</g>
<path d="M180.514 43.2181L180.514 44.6448C180.514 45.5228 180.735 46.1264 181.233 46.5105L181.343 46.6202L191.126 46.6202C191.568 46.8946 192.01 46.9495 192.231 46.9495L212.349 46.9495C213.731 46.9495 215.002 46.8397 216.273 46.6202L216.163 45.852L209.199 45.852C210.746 45.2484 212.073 44.3156 213.123 43.0535L213.62 42.4499L211.52 42.4499C211.575 42.2853 211.686 42.1756 211.741 42.0658L221.248 42.0658L221.358 41.9012C222.187 40.5843 222.85 39.0478 223.237 37.2919C223.237 37.1273 223.293 36.9627 223.348 36.7981L223.458 36.0847L216.384 36.0847C216.55 35.2616 216.66 34.3288 216.771 33.396L223.182 33.396L223.237 33.0667C223.348 31.8047 223.403 30.5975 223.403 29.3903L223.403 27.0857L218.152 27.0857L218.152 26.7015L222.242 26.7015L222.242 18.5256C222.242 18.3061 222.242 18.1414 222.242 17.922L222.187 17.2086L219.258 17.2086C219.203 16.0563 219.147 15.0137 219.092 14.1358L219.037 13.8065L217.434 13.8065C217.323 12.5993 217.158 11.5568 216.937 10.5691C216.66 9.36187 216.273 8.20954 215.776 7.22184L220.916 7.22184L220.64 6.61824C220.253 5.95978 219.921 5.46593 219.589 5.02695C218.982 4.31361 218.318 3.65514 217.489 3.10641L217.434 3.05154L212.957 3.05154C212.736 2.88692 212.515 2.77718 212.349 2.66743L216.108 2.66743L218.208 2.61256L216.163 1.89922C214.394 1.24075 212.294 0.911513 209.807 0.911513L189.689 0.911511C188.97 0.911511 188.362 1.29562 188.031 1.89922L182.559 1.89922L182.449 2.11871C182.338 2.44794 182.283 2.83205 182.283 3.21615L182.283 3.76488L186.76 3.76488L186.76 6.45362L181.62 6.45362L181.62 7.55107C181.62 9.69109 183.112 9.85571 183.554 9.85571L203.396 9.85571C204.501 9.85572 205.441 9.96546 206.104 10.185C206.767 10.4044 207.209 10.7885 207.596 11.2824C207.983 11.8311 208.259 12.5993 208.425 13.587C208.48 13.7517 208.48 13.9711 208.536 14.1906L208.591 14.5199L210.194 14.5199C210.249 15.4527 210.304 16.4404 210.304 17.5927L210.304 17.9768L213.289 17.9768L213.289 25.9333L199.582 25.9333L199.582 27.8539L214.394 27.8539L214.394 30.378C214.394 31.1462 214.394 31.9144 214.339 32.6278L207.872 32.6278L207.872 33.0119C207.817 33.5606 207.762 33.9996 207.651 34.3837C207.541 35.1519 207.32 35.7555 207.043 36.2493L206.767 36.8529L213.731 36.8529C213.399 37.237 212.957 37.5114 212.404 37.7309C211.686 37.9504 210.802 38.0601 209.696 38.0601L189.855 38.0601C189.357 38.0601 187.92 38.2247 187.92 40.4196L187.92 41.2976L178.414 41.2976L178.414 43.2181L180.514 43.2181ZM211.962 43.2181C211.023 44.0961 209.917 44.8094 208.646 45.2484C207.983 45.5228 207.264 45.6874 206.325 45.852L181.62 45.852C181.399 45.5776 181.288 45.1935 181.288 44.6448L181.288 43.2181L211.962 43.2181ZM189.689 1.67973L209.807 1.67973C210.912 1.67973 211.907 1.7346 212.847 1.89922L189.026 1.89922C189.247 1.7346 189.468 1.67973 189.689 1.67973ZM183.057 3.05153C183.057 2.88692 183.057 2.77718 183.057 2.66743L210.525 2.66743C210.802 2.77718 211.133 2.88692 211.41 3.05154L183.057 3.05153ZM187.478 3.76488L217.158 3.76488C217.876 4.25873 218.484 4.86233 218.982 5.5208C219.203 5.79516 219.424 6.06952 219.645 6.45362L187.478 6.45362L187.478 3.76488ZM209.254 13.8065C209.254 13.6419 209.199 13.5322 209.199 13.4224C208.978 12.325 208.646 11.447 208.204 10.8434C207.762 10.185 207.154 9.74597 206.38 9.47161C205.606 9.19725 204.612 9.0875 203.396 9.0875L183.554 9.0875C183.001 9.0875 182.393 8.81314 182.393 7.55107L182.393 7.22184L214.892 7.22184C215.444 8.26442 215.886 9.47161 216.163 10.7337C216.384 11.6665 216.55 12.6542 216.66 13.8065L209.254 13.8065ZM211.078 17.2086C211.078 16.2209 211.023 15.343 210.912 14.5199L218.374 14.5199C218.429 15.343 218.484 16.2209 218.484 17.2086L211.078 17.2086ZM214.063 17.9768L221.469 17.9768C221.469 18.1415 221.469 18.3061 221.469 18.5256L221.469 25.9333L214.063 25.9333L214.063 17.9768ZM200.356 27.0856L200.356 26.7015L217.379 26.7015L217.379 27.0857L200.356 27.0856ZM215.168 30.378L215.168 27.8539L222.629 27.8539L222.629 29.3903C222.629 30.4877 222.574 31.5303 222.519 32.6278L215.113 32.6278C215.168 31.9144 215.168 31.2011 215.168 30.378ZM207.983 36.0847C208.149 35.5909 208.315 35.097 208.425 34.4934C208.48 34.2191 208.536 33.835 208.591 33.396L215.997 33.396C215.886 34.3288 215.776 35.2616 215.61 36.0847L207.983 36.0847ZM188.694 40.4196C188.694 39.1027 189.302 38.8283 189.855 38.8283L209.696 38.8283C210.857 38.8283 211.852 38.7186 212.681 38.4442C213.455 38.1699 214.063 37.7309 214.505 37.0724C214.56 37.0176 214.615 36.9078 214.671 36.8529L222.519 36.8529C222.519 36.9078 222.519 37.0176 222.463 37.1273C222.132 38.7186 221.579 40.0904 220.861 41.2976L188.694 41.2976L188.694 40.4196ZM179.133 42.4499L179.133 42.0658L210.802 42.0658C210.746 42.1207 210.691 42.2304 210.636 42.2853C210.581 42.3402 210.581 42.3951 210.525 42.4499L179.133 42.4499Z" fill="#02D7F2"/>
<path d="M213.976 1.78955H193.858C191.427 1.78955 189.326 2.11879 187.613 2.72238C185.844 3.38085 184.407 4.42343 183.357 5.79524C182.252 7.16705 181.423 8.97784 180.925 11.1727C180.428 13.3128 180.207 15.9466 180.207 18.9646V29.8294C180.207 32.9022 180.428 35.5361 180.925 37.731C181.423 39.871 182.252 41.6818 183.357 43.1085C184.463 44.4803 185.9 45.5229 187.613 46.1265C189.326 46.7301 191.427 47.0593 193.858 47.0593H213.976C214.419 47.0593 215.524 46.8398 215.524 45.1388V40.8038C215.524 39.1028 214.419 38.8833 213.976 38.8833H194.135C192.974 38.8833 191.979 38.7736 191.261 38.4992C190.542 38.2797 190.045 37.8956 189.603 37.292C189.161 36.7433 188.884 35.9202 188.663 34.8776C188.497 33.7802 188.387 32.4084 188.387 30.7622V17.9769C188.387 16.3307 188.497 14.9589 188.663 13.9164C188.884 12.8738 189.161 12.1056 189.603 11.502C190.045 10.8984 190.542 10.5143 191.261 10.2948C191.979 10.0204 192.974 9.91067 194.135 9.91067H213.976C214.419 9.91067 215.524 9.69118 215.524 7.93526V3.71009C215.524 2.00904 214.419 1.78955 213.976 1.78955Z" fill="#FFEE08"/>
<g style="mix-blend-mode:screen">
<path d="M187.378 10.2948C188.097 10.0204 189.092 9.91067 190.197 9.91067H210.039C210.536 9.91067 211.586 9.69118 211.586 7.93526V6.6732H218.605V5.52088H216.505V3.71009C216.505 2.83213 216.229 2.39315 215.897 2.11879H208.602C208.27 1.84443 207.883 1.78955 207.662 1.78955H187.544C186.162 1.78955 184.891 1.8993 183.73 2.11879H193.513C192.629 2.2834 191.855 2.50289 191.081 2.72238C189.478 3.32598 188.152 4.31368 187.102 5.52088H189.202C189.147 5.63062 189.036 5.74037 188.981 5.79524C188.76 6.0696 188.539 6.39884 188.373 6.6732H178.811C178.038 7.93526 177.43 9.41682 177.043 11.1727C176.988 11.3922 176.932 11.6666 176.877 11.8861H183.952C183.73 12.9287 183.62 14.081 183.509 15.343H177.043C176.932 16.4954 176.877 17.7026 176.877 18.9646V20.8852H182.128V22.0375H178.038V29.8294C178.038 30.1586 178.038 30.4878 178.038 30.7622H181.022C181.022 31.9694 181.078 33.1217 181.188 34.2192H182.791C182.901 35.4812 183.067 36.6335 183.344 37.731C183.675 39.1577 184.117 40.4197 184.725 41.5172H179.641C179.917 42.1208 180.248 42.6146 180.58 43.1085C181.188 43.8218 181.851 44.4254 182.57 44.9741H187.102C187.765 45.4131 188.484 45.7972 189.313 46.0716H183.786C183.841 46.1265 183.841 46.1265 183.896 46.1265C185.554 46.7301 187.655 47.0593 190.086 47.0593H210.204C210.591 47.0593 211.31 46.9495 211.586 46.0716H217.113C217.168 45.8521 217.279 45.5229 217.279 45.1388V44.9741H212.747V41.5172H217.887V40.8038C217.887 39.1028 216.837 38.8833 216.339 38.8833H196.498C195.337 38.8833 194.397 38.7736 193.679 38.4992C192.96 38.2797 192.408 37.8956 192.021 37.292C191.579 36.7433 191.247 35.9202 191.081 34.8776C191.026 34.6581 191.026 34.4386 190.971 34.2192H189.368C189.257 33.2314 189.202 32.0791 189.202 30.7622H186.218V22.0375H199.924V20.8852H185.112V17.9769C185.112 16.9892 185.112 16.1113 185.223 15.343H191.634C191.689 14.7943 191.744 14.3553 191.855 13.9164C191.966 13.0933 192.242 12.4348 192.518 11.8861H185.444C185.554 11.7763 185.61 11.6117 185.72 11.502C186.107 10.8984 186.66 10.5143 187.378 10.2948ZM201.14 34.8776H213.189V35.4812H201.14V34.8776ZM190.473 17.7574H202.577V18.361H190.473V17.7574ZM196.498 25.1103H214.46V26.2078H196.498V25.1103ZM187.876 30.7622H194.563V31.3658H187.876V30.7622Z" fill="#FD0130"/>
</g>
<g style="mix-blend-mode:screen">
<path d="M211.439 46.0716H214.59C214.7 45.8521 214.755 45.5229 214.755 45.1388V44.9741H212.6V41.5172H214.755V40.8038C214.755 39.1028 213.65 38.8833 213.208 38.8833H193.366C192.206 38.8833 191.211 38.7736 190.492 38.4992C189.774 38.2797 189.276 37.8956 188.834 37.292C188.447 36.7433 188.116 35.9202 187.95 34.8776C187.729 33.7802 187.618 32.4084 187.618 30.7622V28.7319H193.919V23.0252H187.618V20.8852H184.91V17.9769C184.91 16.9892 184.965 16.1113 185.021 15.343H195.688C195.743 14.7943 195.798 14.3553 195.909 13.9164C196.019 13.0933 196.24 12.4348 196.572 11.8861H185.297C185.352 11.7763 185.463 11.6117 185.518 11.502C185.96 10.8984 186.458 10.5143 187.176 10.2948C187.95 10.0204 188.889 9.91067 190.05 9.91067H209.892C210.334 9.91067 211.439 9.69118 211.439 7.93526V6.6732H214.755V3.71009C214.755 2.83213 214.479 2.39315 214.147 2.11879H208.455C208.123 1.84443 207.736 1.78955 207.46 1.78955H193.09C191.653 1.78955 190.437 1.8993 189.221 2.11879H193.311C192.482 2.2834 191.653 2.50289 190.934 2.72238C189.332 3.32598 187.95 4.31368 186.9 5.52088H189C188.945 5.63062 188.834 5.74037 188.779 5.79524C188.558 6.0696 188.392 6.39884 188.171 6.6732H181.981C181.207 7.93526 180.599 9.41682 180.157 11.1727C180.102 11.3922 180.102 11.6666 180.046 11.8861H183.749C183.584 12.9287 183.418 14.081 183.307 15.343H179.604C179.494 16.4954 179.438 17.7026 179.438 18.9646V20.8852H181.981V22.0375H179.438V29.8294C179.438 30.1586 179.438 30.4878 179.438 30.7622H180.82C180.875 31.9694 180.931 33.1217 180.986 34.2192H182.589C182.755 35.4812 182.92 36.6335 183.142 37.731C183.473 39.1577 183.971 40.4197 184.579 41.5172H181.594C181.87 42.1208 182.202 42.6146 182.589 43.1085C183.142 43.8218 183.805 44.4254 184.579 44.9741H186.9C187.563 45.4131 188.282 45.7972 189.111 46.0716H186.789C186.789 46.1265 186.845 46.1265 186.845 46.1265C188.558 46.7301 190.658 47.0593 193.09 47.0593H210.058C210.389 47.0593 211.108 46.9495 211.439 46.0716Z" fill="#02D7F2"/>
</g>
<path d="M216.747 4.75281V3.32612C216.747 2.44817 216.526 1.84457 216.029 1.46046L215.918 1.35072H206.136C205.694 1.07636 205.252 1.02148 205.03 1.02148H184.912C183.531 1.02148 182.26 1.13123 180.988 1.35072L181.099 2.11893H188.063C186.515 2.72253 185.189 3.65536 184.139 4.91743L183.641 5.52102H185.742C185.686 5.68564 185.576 5.79538 185.52 5.90513H176.014L175.904 6.06975C175.075 7.38668 174.411 8.92311 174.024 10.679C174.024 10.8436 173.969 11.0083 173.914 11.1729L173.803 11.8862H180.878C180.712 12.7093 180.602 13.6421 180.491 14.575H174.08L174.024 14.9042C173.914 16.1663 173.859 17.3735 173.859 18.5807V20.8853H179.109V21.2694H175.019V29.4454C175.019 29.6649 175.019 29.8295 175.019 30.049L175.075 30.7623H178.004C178.059 31.9146 178.114 32.9572 178.17 33.8352L178.225 34.1644H179.828C179.938 35.3716 180.104 36.4142 180.325 37.4019C180.602 38.6091 180.988 39.7614 181.486 40.7491H176.346L176.622 41.3527C177.009 42.0112 177.341 42.505 177.672 42.944C178.28 43.6573 178.943 44.3158 179.772 44.8645L179.828 44.9194H184.305C184.526 45.084 184.747 45.1938 184.912 45.3035H181.154L179.054 45.3584L181.099 46.0717C182.868 46.7302 184.968 47.0594 187.455 47.0594H207.573C208.291 47.0594 208.899 46.6753 209.231 46.0717H214.703L214.813 45.8522C214.924 45.523 214.979 45.1389 214.979 44.7548V44.2061H210.502V41.5173H215.642V40.4199C215.642 38.2799 214.15 38.1152 213.708 38.1152H193.866C192.761 38.1152 191.821 38.0055 191.158 37.786C190.495 37.5665 190.053 37.1824 189.666 36.6885C189.279 36.1398 189.002 35.3716 188.837 34.3839C188.781 34.2193 188.781 33.9998 188.726 33.7803L188.671 33.4511H187.068C187.013 32.5182 186.957 31.5305 186.957 30.3782V29.9941H183.973V22.0376H197.68V20.1171H182.868V17.593C182.868 16.8247 182.868 16.0565 182.923 15.3432H189.389V14.9591C189.445 14.4104 189.5 13.9714 189.61 13.5873C189.721 12.8191 189.942 12.2155 190.218 11.7216L190.495 11.118H183.531C183.862 10.7339 184.305 10.4595 184.857 10.2401C185.576 10.0206 186.46 9.91081 187.565 9.91081H207.407C207.904 9.91081 209.341 9.7462 209.341 7.5513V6.67334H218.848V4.75281H216.747ZM185.299 4.75281C186.239 3.87485 187.344 3.16151 188.616 2.72253C189.279 2.44817 189.997 2.28355 190.937 2.11893H215.642C215.863 2.3933 215.974 2.7774 215.974 3.32612V4.75281H185.299ZM207.573 46.2912H187.455C186.349 46.2912 185.355 46.2363 184.415 46.0717H208.236C208.015 46.2363 207.794 46.2912 207.573 46.2912ZM214.205 44.9194C214.205 45.084 214.205 45.1938 214.205 45.3035H186.736C186.46 45.1938 186.128 45.084 185.852 44.9194H214.205ZM209.784 44.2061H180.104C179.386 43.7122 178.778 43.1086 178.28 42.4501C178.059 42.1758 177.838 41.9014 177.617 41.5173H209.784V44.2061ZM188.008 34.1644C188.008 34.329 188.063 34.4388 188.063 34.5485C188.284 35.646 188.616 36.5239 189.058 37.1275C189.5 37.786 190.108 38.225 190.882 38.4993C191.655 38.7737 192.65 38.8834 193.866 38.8834H213.708C214.26 38.8834 214.868 39.1578 214.868 40.4199V40.7491H182.37C181.817 39.7065 181.375 38.4993 181.099 37.2373C180.878 36.3044 180.712 35.3167 180.602 34.1644H188.008ZM186.184 30.7623C186.184 31.75 186.239 32.628 186.349 33.4511H178.888C178.833 32.628 178.778 31.75 178.778 30.7623H186.184ZM183.199 29.9941H175.793C175.793 29.8295 175.793 29.6649 175.793 29.4454V22.0376H183.199V29.9941ZM196.906 20.8853V21.2694H179.883V20.8853H196.906ZM182.094 17.593V20.1171H174.632V18.5807C174.632 17.4832 174.688 16.4406 174.743 15.3432H182.149C182.094 16.0565 182.094 16.7699 182.094 17.593ZM189.279 11.8862C189.113 12.3801 188.947 12.8739 188.837 13.4775C188.781 13.7519 188.726 14.136 188.671 14.575H181.265C181.375 13.6421 181.486 12.7093 181.652 11.8862H189.279ZM208.568 7.5513C208.568 8.86824 207.96 9.1426 207.407 9.1426H187.565C186.405 9.1426 185.41 9.25235 184.581 9.52671C183.807 9.80107 183.199 10.2401 182.757 10.8985C182.702 10.9534 182.646 11.0631 182.591 11.118H174.743C174.743 11.0631 174.743 10.9534 174.798 10.8436C175.13 9.25235 175.683 7.88053 176.401 6.67334H208.568V7.5513ZM218.129 5.52102V5.90513H186.46C186.515 5.85026 186.571 5.74051 186.626 5.68564C186.681 5.63077 186.681 5.57589 186.736 5.52102H218.129Z" fill="#02D7F2"/>
</svg>
