<svg width="103" height="14" viewBox="0 0 103 14" fill="none" xmlns="http://www.w3.org/2000/svg">
<rect x="50.2106" y="7.76318" width="1.55263" height="1.55263" fill="#FF0004"/>
<rect x="51.7631" y="7.76318" width="1.55263" height="1.55263" fill="#FF0004"/>
<rect x="53.3159" y="7.76318" width="1.55263" height="1.55263" fill="#FF0004"/>
<rect x="53.3159" y="6.21045" width="1.55263" height="1.55263" fill="#FF0004"/>
<rect x="53.3159" y="4.65796" width="1.55263" height="1.55263" fill="#FF0004"/>
<rect x="51.7631" y="1.65601" width="1.55263" height="1.55263" fill="#E30C10"/>
<rect x="50.2106" y="0.103516" width="1.55263" height="1.55263" fill="#E30C10"/>
<rect x="48.6578" y="0.103516" width="1.55263" height="1.55263" fill="#E30C10"/>
<rect x="47.1053" y="1.55249" width="1.55263" height="1.55263" fill="#E30C10"/>
<rect x="45.5526" y="3.20874" width="1.55263" height="1.55263" fill="#E30C10"/>
<rect x="45.5526" y="4.65796" width="1.55263" height="1.55263" fill="#E30C10"/>
<rect x="47.1053" y="6.21045" width="1.55263" height="1.55263" fill="#E30C10"/>
<rect x="48.6578" y="7.76318" width="1.55263" height="1.55263" fill="#E30C10"/>
<rect x="50.2106" y="9.31567" width="1.55263" height="1.55263" fill="#E30C10"/>
<rect x="51.7631" y="10.8684" width="1.55263" height="1.55263" fill="#E30C10"/>
<rect x="53.3159" y="12.4211" width="1.55263" height="1.55263" fill="#E30C10"/>
<rect x="54.8684" y="10.8684" width="1.55263" height="1.55263" fill="#E30C10"/>
<rect x="56.4211" y="9.31567" width="1.55263" height="1.55263" fill="#E30C10"/>
<rect x="57.9737" y="7.76318" width="1.55263" height="1.55263" fill="#E30C10"/>
<rect x="59.5262" y="6.21045" width="1.55263" height="1.55263" fill="#E30C10"/>
<rect x="61.079" y="4.65796" width="1.55263" height="1.55263" fill="#E30C10"/>
<rect x="61.079" y="3.20874" width="1.55263" height="1.55263" fill="#E30C10"/>
<rect x="59.5262" y="1.55249" width="1.55263" height="1.55263" fill="#E30C10"/>
<rect x="57.9737" width="1.55263" height="1.55263" fill="#E30C10"/>
<rect x="56.4211" width="1.55263" height="1.55263" fill="#E30C10"/>
<rect x="54.8684" y="1.55249" width="1.55263" height="1.55263" fill="#E30C10"/>
<rect x="53.3159" y="3.20874" width="1.55263" height="1.55263" fill="#E30C10"/>
<rect x="50.2106" y="1.65601" width="1.55263" height="1.55263" fill="#FF0004"/>
<rect x="48.6578" y="1.65601" width="1.55263" height="1.55263" fill="#FF0004"/>
<rect x="47.1053" y="3.10498" width="1.55263" height="1.55263" fill="#FF0004"/>
<rect x="50.2106" y="3.10498" width="1.55263" height="1.55263" fill="#FFDBDC"/>
<rect x="48.6578" y="4.65796" width="1.55263" height="1.55263" fill="#FFDBDC"/>
<rect x="48.6578" y="3.10498" width="1.55263" height="1.55263" fill="#FF0004"/>
<rect x="51.7631" y="3.20874" width="1.55263" height="1.55263" fill="#FF0004"/>
<rect x="51.7631" y="4.65796" width="1.55263" height="1.55263" fill="#FF0004"/>
<rect x="51.7631" y="6.21045" width="1.55263" height="1.55263" fill="#FF0004"/>
<rect x="50.2106" y="6.21045" width="1.55263" height="1.55263" fill="#FF0004"/>
<rect x="50.2106" y="4.65796" width="1.55263" height="1.55263" fill="#FF0004"/>
<rect x="48.6578" y="6.21045" width="1.55263" height="1.55263" fill="#FF0004"/>
<rect x="47.1053" y="4.65796" width="1.55263" height="1.55263" fill="#FF0004"/>
<rect x="53.3159" y="10.8684" width="1.55263" height="1.55263" fill="#FF0004"/>
<rect x="54.8684" y="9.31567" width="1.55263" height="1.55263" fill="#FF0004"/>
<rect x="53.3159" y="9.31567" width="1.55263" height="1.55263" fill="#FF0004"/>
<rect x="51.7631" y="9.31567" width="1.55263" height="1.55263" fill="#FF0004"/>
<rect x="56.4211" y="7.76318" width="1.55263" height="1.55263" fill="#FF0004"/>
<rect x="56.4211" y="6.21045" width="1.55263" height="1.55263" fill="#FF0004"/>
<rect x="56.4211" y="4.65796" width="1.55263" height="1.55263" fill="#FF0004"/>
<rect x="54.8684" y="3.10498" width="1.55263" height="1.55263" fill="#FF0004"/>
<rect x="54.8684" y="4.65796" width="1.55263" height="1.55263" fill="#FF0004"/>
<rect x="54.8684" y="6.21045" width="1.55263" height="1.55263" fill="#FF0004"/>
<rect x="54.8684" y="7.76318" width="1.55263" height="1.55263" fill="#FF0004"/>
<rect x="56.4211" y="3.10498" width="1.55263" height="1.55263" fill="#FF0004"/>
<rect x="56.4211" y="1.55249" width="1.55263" height="1.55263" fill="#FF0004"/>
<rect x="57.9737" y="1.55249" width="1.55263" height="1.55263" fill="#FF0004"/>
<rect x="57.9737" y="3.10498" width="1.55263" height="1.55263" fill="#FF0004"/>
<rect x="57.9737" y="4.65796" width="1.55263" height="1.55263" fill="#FF0004"/>
<rect x="57.9737" y="6.21045" width="1.55263" height="1.55263" fill="#FF0004"/>
<rect x="59.5262" y="3.10498" width="1.55263" height="1.55263" fill="#FF0004"/>
<rect x="59.5262" y="4.65796" width="1.55263" height="1.55263" fill="#FF0004"/>
<rect x="51.7631" y="12.4211" width="1.55263" height="1.55263" fill="#F99EA0"/>
<rect x="50.2106" y="10.8684" width="1.55263" height="1.55263" fill="#F99EA0"/>
<rect x="53.3159" y="1.65601" width="1.55263" height="1.55263" fill="#F99EA0"/>
<rect x="48.6578" y="9.31567" width="1.55263" height="1.55263" fill="#F99EA0"/>
<rect x="47.1053" y="7.76318" width="1.55263" height="1.55263" fill="#F99EA0"/>
<rect x="45.5526" y="6.21045" width="1.55263" height="1.55263" fill="#F99EA0"/>
<rect x="44" y="4.65796" width="1.55263" height="1.55263" fill="#F99EA0"/>
<rect x="44" y="3.20874" width="1.55263" height="1.55263" fill="#F99EA0"/>
<rect x="45.5526" y="1.65601" width="1.55263" height="1.55263" fill="#F99EA0"/>
<rect x="47.1053" y="0.103516" width="1.55263" height="1.55263" fill="#F99EA0"/>
<rect x="54.8684" width="1.55263" height="1.55263" fill="#F99EA0"/>
<rect x="28.2106" y="7.76318" width="1.55263" height="1.55263" fill="#FF0004"/>
<rect x="29.7631" y="7.76318" width="1.55263" height="1.55263" fill="#FF0004"/>
<rect x="31.3159" y="7.76318" width="1.55263" height="1.55263" fill="#FF0004"/>
<rect x="31.3159" y="6.21045" width="1.55263" height="1.55263" fill="#FF0004"/>
<rect x="31.3159" y="4.65796" width="1.55263" height="1.55263" fill="#FF0004"/>
<rect x="29.7631" y="1.65601" width="1.55263" height="1.55263" fill="#E30C10"/>
<rect x="28.2106" y="0.103516" width="1.55263" height="1.55263" fill="#E30C10"/>
<rect x="26.6578" y="0.103516" width="1.55263" height="1.55263" fill="#E30C10"/>
<rect x="25.1053" y="1.55249" width="1.55263" height="1.55263" fill="#E30C10"/>
<rect x="23.5526" y="3.20874" width="1.55263" height="1.55263" fill="#E30C10"/>
<rect x="23.5526" y="4.65796" width="1.55263" height="1.55263" fill="#E30C10"/>
<rect x="25.1053" y="6.21045" width="1.55263" height="1.55263" fill="#E30C10"/>
<rect x="26.6578" y="7.76318" width="1.55263" height="1.55263" fill="#E30C10"/>
<rect x="28.2106" y="9.31567" width="1.55263" height="1.55263" fill="#E30C10"/>
<rect x="29.7631" y="10.8684" width="1.55263" height="1.55263" fill="#E30C10"/>
<rect x="31.3159" y="12.4211" width="1.55263" height="1.55263" fill="#E30C10"/>
<rect x="32.8684" y="10.8684" width="1.55263" height="1.55263" fill="#E30C10"/>
<rect x="34.4211" y="9.31567" width="1.55263" height="1.55263" fill="#E30C10"/>
<rect x="35.9737" y="7.76318" width="1.55263" height="1.55263" fill="#E30C10"/>
<rect x="37.5262" y="6.21045" width="1.55263" height="1.55263" fill="#E30C10"/>
<rect x="39.079" y="4.65796" width="1.55263" height="1.55263" fill="#E30C10"/>
<rect x="39.079" y="3.20874" width="1.55263" height="1.55263" fill="#E30C10"/>
<rect x="37.5262" y="1.55249" width="1.55263" height="1.55263" fill="#E30C10"/>
<rect x="35.9737" width="1.55263" height="1.55263" fill="#E30C10"/>
<rect x="34.4211" width="1.55263" height="1.55263" fill="#E30C10"/>
<rect x="32.8684" y="1.55249" width="1.55263" height="1.55263" fill="#E30C10"/>
<rect x="31.3159" y="3.20874" width="1.55263" height="1.55263" fill="#E30C10"/>
<rect x="28.2106" y="1.65601" width="1.55263" height="1.55263" fill="#FF0004"/>
<rect x="26.6578" y="1.65601" width="1.55263" height="1.55263" fill="#FF0004"/>
<rect x="25.1053" y="3.10498" width="1.55263" height="1.55263" fill="#FF0004"/>
<rect x="28.2106" y="3.10498" width="1.55263" height="1.55263" fill="#FFDBDC"/>
<rect x="26.6578" y="4.65796" width="1.55263" height="1.55263" fill="#FFDBDC"/>
<rect x="26.6578" y="3.10498" width="1.55263" height="1.55263" fill="#FF0004"/>
<rect x="29.7631" y="3.20874" width="1.55263" height="1.55263" fill="#FF0004"/>
<rect x="29.7631" y="4.65796" width="1.55263" height="1.55263" fill="#FF0004"/>
<rect x="29.7631" y="6.21045" width="1.55263" height="1.55263" fill="#FF0004"/>
<rect x="28.2106" y="6.21045" width="1.55263" height="1.55263" fill="#FF0004"/>
<rect x="28.2106" y="4.65796" width="1.55263" height="1.55263" fill="#FF0004"/>
<rect x="26.6578" y="6.21045" width="1.55263" height="1.55263" fill="#FF0004"/>
<rect x="25.1053" y="4.65796" width="1.55263" height="1.55263" fill="#FF0004"/>
<rect x="31.3159" y="10.8684" width="1.55263" height="1.55263" fill="#FF0004"/>
<rect x="32.8684" y="9.31567" width="1.55263" height="1.55263" fill="#FF0004"/>
<rect x="31.3159" y="9.31567" width="1.55263" height="1.55263" fill="#FF0004"/>
<rect x="29.7631" y="9.31567" width="1.55263" height="1.55263" fill="#FF0004"/>
<rect x="34.4211" y="7.76318" width="1.55263" height="1.55263" fill="#FF0004"/>
<rect x="34.4211" y="6.21045" width="1.55263" height="1.55263" fill="#FF0004"/>
<rect x="34.4211" y="4.65796" width="1.55263" height="1.55263" fill="#FF0004"/>
<rect x="32.8684" y="3.10498" width="1.55263" height="1.55263" fill="#FF0004"/>
<rect x="32.8684" y="4.65796" width="1.55263" height="1.55263" fill="#FF0004"/>
<rect x="32.8684" y="6.21045" width="1.55263" height="1.55263" fill="#FF0004"/>
<rect x="32.8684" y="7.76318" width="1.55263" height="1.55263" fill="#FF0004"/>
<rect x="34.4211" y="3.10498" width="1.55263" height="1.55263" fill="#FF0004"/>
<rect x="34.4211" y="1.55249" width="1.55263" height="1.55263" fill="#FF0004"/>
<rect x="35.9737" y="1.55249" width="1.55263" height="1.55263" fill="#FF0004"/>
<rect x="35.9737" y="3.10498" width="1.55263" height="1.55263" fill="#FF0004"/>
<rect x="35.9737" y="4.65796" width="1.55263" height="1.55263" fill="#FF0004"/>
<rect x="35.9737" y="6.21045" width="1.55263" height="1.55263" fill="#FF0004"/>
<rect x="37.5262" y="3.10498" width="1.55263" height="1.55263" fill="#FF0004"/>
<rect x="37.5262" y="4.65796" width="1.55263" height="1.55263" fill="#FF0004"/>
<rect x="29.7631" y="12.4211" width="1.55263" height="1.55263" fill="#F99EA0"/>
<rect x="28.2106" y="10.8684" width="1.55263" height="1.55263" fill="#F99EA0"/>
<rect x="31.3159" y="1.65601" width="1.55263" height="1.55263" fill="#F99EA0"/>
<rect x="26.6578" y="9.31567" width="1.55263" height="1.55263" fill="#F99EA0"/>
<rect x="25.1053" y="7.76318" width="1.55263" height="1.55263" fill="#F99EA0"/>
<rect x="23.5526" y="6.21045" width="1.55263" height="1.55263" fill="#F99EA0"/>
<rect x="22" y="4.65796" width="1.55263" height="1.55263" fill="#F99EA0"/>
<rect x="22" y="3.20874" width="1.55263" height="1.55263" fill="#F99EA0"/>
<rect x="23.5526" y="1.65601" width="1.55263" height="1.55263" fill="#F99EA0"/>
<rect x="25.1053" y="0.103516" width="1.55263" height="1.55263" fill="#F99EA0"/>
<rect x="32.8684" width="1.55263" height="1.55263" fill="#F99EA0"/>
<rect x="6.21057" y="7.76318" width="1.55263" height="1.55263" fill="#FF0004"/>
<rect x="7.76312" y="7.76318" width="1.55263" height="1.55263" fill="#FF0004"/>
<rect x="9.31586" y="7.76318" width="1.55263" height="1.55263" fill="#FF0004"/>
<rect x="9.31586" y="6.21045" width="1.55263" height="1.55263" fill="#FF0004"/>
<rect x="9.31586" y="4.65796" width="1.55263" height="1.55263" fill="#FF0004"/>
<rect x="7.76312" y="1.65601" width="1.55263" height="1.55263" fill="#E30C10"/>
<rect x="6.21057" y="0.103516" width="1.55263" height="1.55263" fill="#E30C10"/>
<rect x="4.65784" y="0.103516" width="1.55263" height="1.55263" fill="#E30C10"/>
<rect x="3.10529" y="1.55249" width="1.55263" height="1.55263" fill="#E30C10"/>
<rect x="1.55255" y="3.20874" width="1.55263" height="1.55263" fill="#E30C10"/>
<rect x="1.55255" y="4.65796" width="1.55263" height="1.55263" fill="#E30C10"/>
<rect x="3.10529" y="6.21045" width="1.55263" height="1.55263" fill="#E30C10"/>
<rect x="4.65784" y="7.76318" width="1.55263" height="1.55263" fill="#E30C10"/>
<rect x="6.21057" y="9.31567" width="1.55263" height="1.55263" fill="#E30C10"/>
<rect x="7.76312" y="10.8684" width="1.55263" height="1.55263" fill="#E30C10"/>
<rect x="9.31586" y="12.4211" width="1.55263" height="1.55263" fill="#E30C10"/>
<rect x="10.8684" y="10.8684" width="1.55263" height="1.55263" fill="#E30C10"/>
<rect x="12.4211" y="9.31567" width="1.55263" height="1.55263" fill="#E30C10"/>
<rect x="13.9737" y="7.76318" width="1.55263" height="1.55263" fill="#E30C10"/>
<rect x="15.5262" y="6.21045" width="1.55263" height="1.55263" fill="#E30C10"/>
<rect x="17.079" y="4.65796" width="1.55263" height="1.55263" fill="#E30C10"/>
<rect x="17.079" y="3.20874" width="1.55263" height="1.55263" fill="#E30C10"/>
<rect x="15.5262" y="1.55249" width="1.55263" height="1.55263" fill="#E30C10"/>
<rect x="13.9737" width="1.55263" height="1.55263" fill="#E30C10"/>
<rect x="12.4211" width="1.55263" height="1.55263" fill="#E30C10"/>
<rect x="10.8684" y="1.55249" width="1.55263" height="1.55263" fill="#E30C10"/>
<rect x="9.31586" y="3.20874" width="1.55263" height="1.55263" fill="#E30C10"/>
<rect x="6.21057" y="1.65601" width="1.55263" height="1.55263" fill="#FF0004"/>
<rect x="4.65784" y="1.65601" width="1.55263" height="1.55263" fill="#FF0004"/>
<rect x="3.10529" y="3.10498" width="1.55263" height="1.55263" fill="#FF0004"/>
<rect x="6.21057" y="3.10498" width="1.55263" height="1.55263" fill="#FFDBDC"/>
<rect x="4.65784" y="4.65796" width="1.55263" height="1.55263" fill="#FFDBDC"/>
<rect x="4.65784" y="3.10498" width="1.55263" height="1.55263" fill="#FF0004"/>
<rect x="7.76312" y="3.20874" width="1.55263" height="1.55263" fill="#FF0004"/>
<rect x="7.76312" y="4.65796" width="1.55263" height="1.55263" fill="#FF0004"/>
<rect x="7.76312" y="6.21045" width="1.55263" height="1.55263" fill="#FF0004"/>
<rect x="6.21057" y="6.21045" width="1.55263" height="1.55263" fill="#FF0004"/>
<rect x="6.21057" y="4.65796" width="1.55263" height="1.55263" fill="#FF0004"/>
<rect x="4.65784" y="6.21045" width="1.55263" height="1.55263" fill="#FF0004"/>
<rect x="3.10529" y="4.65796" width="1.55263" height="1.55263" fill="#FF0004"/>
<rect x="9.31586" y="10.8684" width="1.55263" height="1.55263" fill="#FF0004"/>
<rect x="10.8684" y="9.31567" width="1.55263" height="1.55263" fill="#FF0004"/>
<rect x="9.31586" y="9.31567" width="1.55263" height="1.55263" fill="#FF0004"/>
<rect x="7.76312" y="9.31567" width="1.55263" height="1.55263" fill="#FF0004"/>
<rect x="12.4211" y="7.76318" width="1.55263" height="1.55263" fill="#FF0004"/>
<rect x="12.4211" y="6.21045" width="1.55263" height="1.55263" fill="#FF0004"/>
<rect x="12.4211" y="4.65796" width="1.55263" height="1.55263" fill="#FF0004"/>
<rect x="10.8684" y="3.10498" width="1.55263" height="1.55263" fill="#FF0004"/>
<rect x="10.8684" y="4.65796" width="1.55263" height="1.55263" fill="#FF0004"/>
<rect x="10.8684" y="6.21045" width="1.55263" height="1.55263" fill="#FF0004"/>
<rect x="10.8684" y="7.76318" width="1.55263" height="1.55263" fill="#FF0004"/>
<rect x="12.4211" y="3.10498" width="1.55263" height="1.55263" fill="#FF0004"/>
<rect x="12.4211" y="1.55249" width="1.55263" height="1.55263" fill="#FF0004"/>
<rect x="13.9737" y="1.55249" width="1.55263" height="1.55263" fill="#FF0004"/>
<rect x="13.9737" y="3.10498" width="1.55263" height="1.55263" fill="#FF0004"/>
<rect x="13.9737" y="4.65796" width="1.55263" height="1.55263" fill="#FF0004"/>
<rect x="13.9737" y="6.21045" width="1.55263" height="1.55263" fill="#FF0004"/>
<rect x="15.5262" y="3.10498" width="1.55263" height="1.55263" fill="#FF0004"/>
<rect x="15.5262" y="4.65796" width="1.55263" height="1.55263" fill="#FF0004"/>
<rect x="7.76312" y="12.4211" width="1.55263" height="1.55263" fill="#F99EA0"/>
<rect x="6.21057" y="10.8684" width="1.55263" height="1.55263" fill="#F99EA0"/>
<rect x="9.31586" y="1.65601" width="1.55263" height="1.55263" fill="#F99EA0"/>
<rect x="4.65784" y="9.31567" width="1.55263" height="1.55263" fill="#F99EA0"/>
<rect x="3.10529" y="7.76318" width="1.55263" height="1.55263" fill="#F99EA0"/>
<rect x="1.55255" y="6.21045" width="1.55263" height="1.55263" fill="#F99EA0"/>
<rect y="4.65796" width="1.55263" height="1.55263" fill="#F99EA0"/>
<rect y="3.20874" width="1.55263" height="1.55263" fill="#F99EA0"/>
<rect x="1.55255" y="1.65601" width="1.55263" height="1.55263" fill="#F99EA0"/>
<rect x="3.10529" y="0.103516" width="1.55263" height="1.55263" fill="#F99EA0"/>
<rect x="10.8684" width="1.55263" height="1.55263" fill="#F99EA0"/>
<rect x="70.3948" y="7.76318" width="1.55263" height="1.55263" fill="#FF0004"/>
<rect x="71.9474" y="7.76318" width="1.55263" height="1.55263" fill="#FF0004"/>
<rect x="73.4999" y="7.76318" width="1.55263" height="1.55263" fill="#FF0004"/>
<rect x="73.4999" y="6.21045" width="1.55263" height="1.55263" fill="#FF0004"/>
<rect x="73.4999" y="4.65796" width="1.55263" height="1.55263" fill="#FF0004"/>
<rect x="71.9474" y="1.65601" width="1.55263" height="1.55263" fill="#E30C10"/>
<rect x="92.1316" y="1.65601" width="1.55263" height="1.55263" fill="#E30C10"/>
<rect x="70.3948" y="0.103516" width="1.55263" height="1.55263" fill="#E30C10"/>
<rect x="90.5789" y="0.103516" width="1.55263" height="1.55263" fill="#E30C10"/>
<rect x="68.8421" y="0.103516" width="1.55263" height="1.55263" fill="#E30C10"/>
<rect x="89.0264" y="0.103516" width="1.55263" height="1.55263" fill="#E30C10"/>
<rect x="67.2895" y="1.55249" width="1.55263" height="1.55263" fill="#E30C10"/>
<rect x="87.4736" y="1.55249" width="1.55263" height="1.55263" fill="#E30C10"/>
<rect x="65.7368" y="3.20874" width="1.55263" height="1.55263" fill="#E30C10"/>
<rect x="85.921" y="3.20874" width="1.55263" height="1.55263" fill="#E30C10"/>
<rect x="65.7368" y="4.65796" width="1.55263" height="1.55263" fill="#E30C10"/>
<rect x="85.921" y="4.65796" width="1.55263" height="1.55263" fill="#E30C10"/>
<rect x="67.2895" y="6.21045" width="1.55263" height="1.55263" fill="#E30C10"/>
<rect x="87.4736" y="6.21045" width="1.55263" height="1.55263" fill="#E30C10"/>
<rect x="68.8421" y="7.76318" width="1.55263" height="1.55263" fill="#E30C10"/>
<rect x="89.0264" y="7.76318" width="1.55263" height="1.55263" fill="#E30C10"/>
<rect x="70.3948" y="9.31567" width="1.55263" height="1.55263" fill="#E30C10"/>
<rect x="90.5789" y="9.31567" width="1.55263" height="1.55263" fill="#E30C10"/>
<rect x="71.9474" y="10.8684" width="1.55263" height="1.55263" fill="#E30C10"/>
<rect x="92.1316" y="10.8684" width="1.55263" height="1.55263" fill="#E30C10"/>
<rect x="73.4999" y="12.4211" width="1.55263" height="1.55263" fill="#E30C10"/>
<rect x="93.6842" y="12.4211" width="1.55263" height="1.55263" fill="#E30C10"/>
<rect x="75.0527" y="10.8684" width="1.55263" height="1.55263" fill="#E30C10"/>
<rect x="95.2369" y="10.8684" width="1.55263" height="1.55263" fill="#E30C10"/>
<rect x="76.6052" y="9.31567" width="1.55263" height="1.55263" fill="#E30C10"/>
<rect x="96.7894" y="9.31567" width="1.55263" height="1.55263" fill="#E30C10"/>
<rect x="78.158" y="7.76318" width="1.55263" height="1.55263" fill="#E30C10"/>
<rect x="98.3422" y="7.76318" width="1.55263" height="1.55263" fill="#E30C10"/>
<rect x="79.7105" y="6.21045" width="1.55263" height="1.55263" fill="#E30C10"/>
<rect x="99.8947" y="6.21045" width="1.55263" height="1.55263" fill="#E30C10"/>
<rect x="81.2632" y="4.65796" width="1.55263" height="1.55263" fill="#E30C10"/>
<rect x="101.447" y="4.65796" width="1.55263" height="1.55263" fill="#E30C10"/>
<rect x="81.2632" y="3.20874" width="1.55263" height="1.55263" fill="#E30C10"/>
<rect x="101.447" y="3.20874" width="1.55263" height="1.55263" fill="#E30C10"/>
<rect x="79.7105" y="1.55249" width="1.55263" height="1.55263" fill="#E30C10"/>
<rect x="99.8947" y="1.55249" width="1.55263" height="1.55263" fill="#E30C10"/>
<rect x="78.158" width="1.55263" height="1.55263" fill="#E30C10"/>
<rect x="98.3422" width="1.55263" height="1.55263" fill="#E30C10"/>
<rect x="76.6052" width="1.55263" height="1.55263" fill="#E30C10"/>
<rect x="96.7894" width="1.55263" height="1.55263" fill="#E30C10"/>
<rect x="75.0527" y="1.55249" width="1.55263" height="1.55263" fill="#E30C10"/>
<rect x="95.2369" y="1.55249" width="1.55263" height="1.55263" fill="#E30C10"/>
<rect x="73.4999" y="3.20874" width="1.55263" height="1.55263" fill="#E30C10"/>
<rect x="93.6842" y="3.20874" width="1.55263" height="1.55263" fill="#E30C10"/>
<rect x="70.3948" y="1.65601" width="1.55263" height="1.55263" fill="#FF0004"/>
<rect x="68.8421" y="1.65601" width="1.55263" height="1.55263" fill="#FF0004"/>
<rect x="67.2895" y="3.10498" width="1.55263" height="1.55263" fill="#FF0004"/>
<rect x="70.3948" y="3.10498" width="1.55263" height="1.55263" fill="#FFDBDC"/>
<rect x="90.5789" y="3.10498" width="1.55263" height="1.55263" fill="#FFDBDC"/>
<rect x="68.8421" y="4.65796" width="1.55263" height="1.55263" fill="#FFDBDC"/>
<rect x="89.0264" y="4.65796" width="1.55263" height="1.55263" fill="#FFDBDC"/>
<rect x="68.8421" y="3.10498" width="1.55263" height="1.55263" fill="#FF0004"/>
<rect x="71.9474" y="3.20874" width="1.55263" height="1.55263" fill="#FF0004"/>
<rect x="71.9474" y="4.65796" width="1.55263" height="1.55263" fill="#FF0004"/>
<rect x="71.9474" y="6.21045" width="1.55263" height="1.55263" fill="#FF0004"/>
<rect x="70.3948" y="6.21045" width="1.55263" height="1.55263" fill="#FF0004"/>
<rect x="70.3948" y="4.65796" width="1.55263" height="1.55263" fill="#FF0004"/>
<rect x="68.8421" y="6.21045" width="1.55263" height="1.55263" fill="#FF0004"/>
<rect x="67.2895" y="4.65796" width="1.55263" height="1.55263" fill="#FF0004"/>
<rect x="73.4999" y="10.8684" width="1.55263" height="1.55263" fill="#FF0004"/>
<rect x="73.4999" y="9.31567" width="1.55263" height="1.55263" fill="#FF0004"/>
<rect x="71.9474" y="9.31567" width="1.55263" height="1.55263" fill="#FF0004"/>
<rect x="71.9474" y="12.4211" width="1.55263" height="1.55263" fill="#F99EA0"/>
<rect x="92.1316" y="12.4211" width="1.55263" height="1.55263" fill="#F99EA0"/>
<rect x="70.3948" y="10.8684" width="1.55263" height="1.55263" fill="#F99EA0"/>
<rect x="90.5789" y="10.8684" width="1.55263" height="1.55263" fill="#F99EA0"/>
<rect x="73.4999" y="1.65601" width="1.55263" height="1.55263" fill="#F99EA0"/>
<rect x="93.6842" y="1.65601" width="1.55263" height="1.55263" fill="#F99EA0"/>
<rect x="68.8421" y="9.31567" width="1.55263" height="1.55263" fill="#F99EA0"/>
<rect x="89.0264" y="9.31567" width="1.55263" height="1.55263" fill="#F99EA0"/>
<rect x="67.2895" y="7.76318" width="1.55263" height="1.55263" fill="#F99EA0"/>
<rect x="87.4736" y="7.76318" width="1.55263" height="1.55263" fill="#F99EA0"/>
<rect x="65.7368" y="6.21045" width="1.55263" height="1.55263" fill="#F99EA0"/>
<rect x="85.921" y="6.21045" width="1.55263" height="1.55263" fill="#F99EA0"/>
<rect x="64.1843" y="4.65796" width="1.55263" height="1.55263" fill="#F99EA0"/>
<rect x="84.3685" y="4.65796" width="1.55263" height="1.55263" fill="#F99EA0"/>
<rect x="64.1843" y="3.20874" width="1.55263" height="1.55263" fill="#F99EA0"/>
<rect x="84.3685" y="3.20874" width="1.55263" height="1.55263" fill="#F99EA0"/>
<rect x="65.7368" y="1.65601" width="1.55263" height="1.55263" fill="#F99EA0"/>
<rect x="85.921" y="1.65601" width="1.55263" height="1.55263" fill="#F99EA0"/>
<rect x="67.2895" y="0.103516" width="1.55263" height="1.55263" fill="#F99EA0"/>
<rect x="87.4736" y="0.103516" width="1.55263" height="1.55263" fill="#F99EA0"/>
<rect x="75.0527" width="1.55263" height="1.55263" fill="#F99EA0"/>
<rect x="95.2369" width="1.55263" height="1.55263" fill="#F99EA0"/>
</svg>
