<svg width="178" height="55" viewBox="0 0 178 55" fill="none" xmlns="http://www.w3.org/2000/svg">
<g filter="url(#filter0_i_52_13403)">
<path d="M172.757 3.5791H174.777V6.35547H177V46.623H174.777V51.3838H169.12V53.5654H3.62695V51.3838H1V8.93457H3.22266V3.5791H7.26367V1H172.757V3.5791Z" fill="#F7F7D3"/>
</g>
<path d="M172.757 3.5791H171.761V4.57483H172.757V3.5791ZM174.777 3.5791H175.773V2.58337H174.777V3.5791ZM174.777 6.35547H173.782V7.3512H174.777V6.35547ZM177 6.35547H177.996V5.35974H177V6.35547ZM177 46.623V47.6188H177.996V46.623H177ZM174.777 46.623V45.6273H173.782V46.623H174.777ZM174.777 51.3838V52.3795H175.773V51.3838H174.777ZM169.12 51.3838V50.3881H168.124V51.3838H169.12ZM169.12 53.5654V54.5612H170.116V53.5654H169.12ZM3.62695 53.5654H2.63122V54.5612H3.62695V53.5654ZM3.62695 51.3838H4.62269V50.3881H3.62695V51.3838ZM1 51.3838H0.00426668V52.3795H1V51.3838ZM1 8.93457V7.93884H0.00426668V8.93457H1ZM3.22266 8.93457V9.9303H4.21839V8.93457H3.22266ZM3.22266 3.5791V2.58337H2.22692V3.5791H3.22266ZM7.26367 3.5791V4.57483H8.25941V3.5791H7.26367ZM7.26367 1V0.00426668H6.26794V1H7.26367ZM172.757 1H173.753V0.00426668H172.757V1ZM172.757 3.5791V4.57483H174.777V3.5791V2.58337H172.757V3.5791ZM174.777 3.5791H173.782V6.35547H174.777H175.773V3.5791H174.777ZM174.777 6.35547V7.3512H177V6.35547V5.35974H174.777V6.35547ZM177 6.35547H176.004V46.623H177H177.996V6.35547H177ZM177 46.623V45.6273H174.777V46.623V47.6188H177V46.623ZM174.777 46.623H173.782V51.3838H174.777H175.773V46.623H174.777ZM174.777 51.3838V50.3881H169.12V51.3838V52.3795H174.777V51.3838ZM169.12 51.3838H168.124V53.5654H169.12H170.116V51.3838H169.12ZM169.12 53.5654V52.5697H3.62695V53.5654V54.5612H169.12V53.5654ZM3.62695 53.5654H4.62269V51.3838H3.62695H2.63122V53.5654H3.62695ZM3.62695 51.3838V50.3881H1V51.3838V52.3795H3.62695V51.3838ZM1 51.3838H1.99573V8.93457H1H0.00426668V51.3838H1ZM1 8.93457V9.9303H3.22266V8.93457V7.93884H1V8.93457ZM3.22266 8.93457H4.21839V3.5791H3.22266H2.22692V8.93457H3.22266ZM3.22266 3.5791V4.57483H7.26367V3.5791V2.58337H3.22266V3.5791ZM7.26367 3.5791H8.25941V1H7.26367H6.26794V3.5791H7.26367ZM7.26367 1V1.99573H172.757V1V0.00426668H7.26367V1ZM172.757 1H171.761V3.5791H172.757H173.753V1H172.757Z" fill="white"/>
<defs>
<filter id="filter0_i_52_13403" x="0.00427246" y="0.00415039" width="177.991" height="54.5571" filterUnits="userSpaceOnUse" color-interpolation-filters="sRGB">
<feFlood flood-opacity="0" result="BackgroundImageFix"/>
<feBlend mode="normal" in="SourceGraphic" in2="BackgroundImageFix" result="shape"/>
<feColorMatrix in="SourceAlpha" type="matrix" values="0 0 0 0 0 0 0 0 0 0 0 0 0 0 0 0 0 0 127 0" result="hardAlpha"/>
<feOffset dx="3.98293" dy="3.98293"/>
<feComposite in2="hardAlpha" operator="arithmetic" k2="-1" k3="1"/>
<feColorMatrix type="matrix" values="0 0 0 0 0.823529 0 0 0 0 0.788235 0 0 0 0 0.631373 0 0 0 1 0"/>
<feBlend mode="normal" in2="shape" result="effect1_innerShadow_52_13403"/>
</filter>
</defs>
</svg>
