<svg width="302" height="104" viewBox="0 0 302 104" fill="none" xmlns="http://www.w3.org/2000/svg">
<path d="M278.085 74.5869H280.332V78.2402H283.428V81.8926H286.522V85.5459H278.085V85.5469H289.618V89.1992H292.714V92.8525H295.81V96.5059H298.905V100.159H302V103.812H33.3184V100.159H30.2236V96.5059H27.1279V92.8525H3.06641V89.1992H0V14.6133H278.085V74.5869ZM274.1 7.30664H278.085V14.6123H3.06641V7.30664H6.13184V3.65332H12.2637V0H271.033V3.65332H274.1V7.30664Z" fill="#535353"/>
<g filter="url(#filter0_i_49_2974)">
<path d="M266.128 10.0459H269.194V14.3086H272.566V76.1084H269.194V83.415H260.609V86.7646H9.50427V83.415H5.51892V18.2656H8.89099V10.0459H15.0238V6.08887H266.128V10.0459Z" fill="#F7F7D3"/>
</g>
<path d="M266.128 10.0459H264.6V11.5741H266.128V10.0459ZM269.194 10.0459H270.722V8.51769H269.194V10.0459ZM269.194 14.3086H267.666V15.8368H269.194V14.3086ZM272.566 14.3086H274.094V12.7804H272.566V14.3086ZM272.566 76.1084V77.6366H274.094V76.1084H272.566ZM269.194 76.1084V74.5802H267.666V76.1084H269.194ZM269.194 83.415V84.9432H270.722V83.415H269.194ZM260.609 83.415V81.8868H259.081V83.415H260.609ZM260.609 86.7646V88.2929H262.137V86.7646H260.609ZM9.50427 86.7646H7.97607V88.2929H9.50427V86.7646ZM9.50427 83.415H11.0325V81.8868H9.50427V83.415ZM5.51892 83.415H3.99072V84.9432H5.51892V83.415ZM5.51892 18.2656V16.7374H3.99072V18.2656H5.51892ZM8.89099 18.2656V19.7938H10.4192V18.2656H8.89099ZM8.89099 10.0459V8.51769H7.36279V10.0459H8.89099ZM15.0238 10.0459V11.5741H16.552V10.0459H15.0238ZM15.0238 6.08887V4.56066H13.4956V6.08887H15.0238ZM266.128 6.08887H267.656V4.56066H266.128V6.08887ZM266.128 10.0459V11.5741H269.194V10.0459V8.51769H266.128V10.0459ZM269.194 10.0459H267.666V14.3086H269.194H270.722V10.0459H269.194ZM269.194 14.3086V15.8368H272.566V14.3086V12.7804H269.194V14.3086ZM272.566 14.3086H271.038V76.1084H272.566H274.094V14.3086H272.566ZM272.566 76.1084V74.5802H269.194V76.1084V77.6366H272.566V76.1084ZM269.194 76.1084H267.666V83.415H269.194H270.722V76.1084H269.194ZM269.194 83.415V81.8868H260.609V83.415V84.9432H269.194V83.415ZM260.609 83.415H259.081V86.7646H260.609H262.137V83.415H260.609ZM260.609 86.7646V85.2364H9.50427V86.7646V88.2929H260.609V86.7646ZM9.50427 86.7646H11.0325V83.415H9.50427H7.97607V86.7646H9.50427ZM9.50427 83.415V81.8868H5.51892V83.415V84.9432H9.50427V83.415ZM5.51892 83.415H7.04712V18.2656H5.51892H3.99072V83.415H5.51892ZM5.51892 18.2656V19.7938H8.89099V18.2656V16.7374H5.51892V18.2656ZM8.89099 18.2656H10.4192V10.0459H8.89099H7.36279V18.2656H8.89099ZM8.89099 10.0459V11.5741H15.0238V10.0459V8.51769H8.89099V10.0459ZM15.0238 10.0459H16.552V6.08887H15.0238H13.4956V10.0459H15.0238ZM15.0238 6.08887V7.61707H266.128V6.08887V4.56066H15.0238V6.08887ZM266.128 6.08887H264.6V10.0459H266.128H267.656V6.08887H266.128Z" fill="black"/>
<defs>
<filter id="filter0_i_49_2974" x="3.99072" y="4.56055" width="270.103" height="83.7324" filterUnits="userSpaceOnUse" color-interpolation-filters="sRGB">
<feFlood flood-opacity="0" result="BackgroundImageFix"/>
<feBlend mode="normal" in="SourceGraphic" in2="BackgroundImageFix" result="shape"/>
<feColorMatrix in="SourceAlpha" type="matrix" values="0 0 0 0 0 0 0 0 0 0 0 0 0 0 0 0 0 0 127 0" result="hardAlpha"/>
<feOffset dx="6.11282" dy="6.11282"/>
<feComposite in2="hardAlpha" operator="arithmetic" k2="-1" k3="1"/>
<feColorMatrix type="matrix" values="0 0 0 0 0.823529 0 0 0 0 0.788235 0 0 0 0 0.631373 0 0 0 1 0"/>
<feBlend mode="normal" in2="shape" result="effect1_innerShadow_49_2974"/>
</filter>
</defs>
</svg>
