<svg width="322" height="86" viewBox="0 0 322 86" fill="none" xmlns="http://www.w3.org/2000/svg">
<rect x="13.7249" width="293.797" height="3.3079" fill="#F99EA0"/>
<rect x="13.7249" y="82.6921" width="293.797" height="3.3079" fill="#F99EA0"/>
<rect x="307.529" y="3.31226" width="5.49154" height="3.3079" fill="#F99EA0"/>
<rect width="5.49154" height="3.3079" transform="matrix(-1 0 0 1 13.7249 3.31226)" fill="#F99EA0"/>
<rect x="313.024" y="6.61792" width="2.74577" height="3.3079" fill="#F99EA0"/>
<rect width="2.74577" height="3.3079" transform="matrix(-1 0 0 1 8.24108 6.61792)" fill="#F99EA0"/>
<rect x="315.763" y="9.9187" width="2.74577" height="3.3079" fill="#F99EA0"/>
<rect width="2.74577" height="3.3079" transform="matrix(-1 0 0 1 5.50208 9.9187)" fill="#F99EA0"/>
<rect x="318.508" y="13.231" width="2.74577" height="59.5421" fill="#F99EA0"/>
<rect width="2.74577" height="59.5421" transform="matrix(-1 0 0 1 2.74567 13.231)" fill="#F99EA0"/>
<rect x="315.763" y="72.7737" width="2.74577" height="3.3079" fill="#F99EA0"/>
<rect width="2.74577" height="3.3079" transform="matrix(-1 0 0 1 5.50208 72.7737)" fill="#F99EA0"/>
<rect x="313.024" y="76.0852" width="2.74577" height="3.3079" fill="#F99EA0"/>
<rect width="2.74577" height="3.3079" transform="matrix(-1 0 0 1 8.24108 76.0852)" fill="#F99EA0"/>
<rect x="307.529" y="79.386" width="5.49154" height="3.3079" fill="#F99EA0"/>
<rect width="5.49154" height="3.3079" transform="matrix(-1 0 0 1 13.7249 79.386)" fill="#F99EA0"/>
<rect x="13.7249" y="3.31226" width="293.797" height="79.3895" fill="#970003"/>
<rect x="307.529" y="6.61792" width="5.49154" height="72.7737" fill="#970003"/>
<rect x="313.024" y="9.9187" width="2.74577" height="66.1579" fill="#970003"/>
<rect x="315.763" y="13.231" width="2.74577" height="59.5421" fill="#970003"/>
<rect x="2.74567" y="13.231" width="2.74577" height="59.5421" fill="#970003"/>
<rect x="5.50208" y="9.9187" width="2.74577" height="66.1579" fill="#970003"/>
<rect x="8.24108" y="6.61792" width="5.49154" height="72.7737" fill="#970003"/>
<rect x="20.4155" y="7.33667" width="279.917" height="2.72415" fill="black"/>
<rect x="20.4155" y="75.4397" width="279.917" height="2.72415" fill="black"/>
<rect x="300.324" y="10.0642" width="5.2321" height="2.72415" fill="black"/>
<rect width="5.2321" height="2.72415" transform="matrix(-1 0 0 1 20.4155 10.0642)" fill="black"/>
<rect x="305.561" y="12.7805" width="2.61605" height="2.72415" fill="black"/>
<rect width="2.61605" height="2.72415" transform="matrix(-1 0 0 1 15.1782 12.7805)" fill="black"/>
<rect x="308.174" y="15.5073" width="2.61605" height="2.72415" fill="black"/>
<rect width="2.61605" height="2.72415" transform="matrix(-1 0 0 1 12.5709 15.5073)" fill="black"/>
<rect x="310.793" y="18.2351" width="2.61605" height="49.0347" fill="black"/>
<rect width="2.61605" height="49.0347" transform="matrix(-1 0 0 1 9.95219 18.2351)" fill="black"/>
<rect x="308.174" y="67.2629" width="2.61605" height="2.72415" fill="black"/>
<rect width="2.61605" height="2.72415" transform="matrix(-1 0 0 1 12.5709 67.2629)" fill="black"/>
<rect x="305.561" y="69.9902" width="2.61605" height="2.72415" fill="black"/>
<rect width="2.61605" height="2.72415" transform="matrix(-1 0 0 1 15.1782 69.9902)" fill="black"/>
<rect x="300.324" y="72.7178" width="5.2321" height="2.72415" fill="black"/>
<rect width="5.2321" height="2.72415" transform="matrix(-1 0 0 1 20.4155 72.7178)" fill="black"/>
<rect x="20.4155" y="10.0642" width="279.917" height="65.3796" fill="#F7F7D3"/>
<rect x="300.324" y="12.7805" width="5.2321" height="59.9313" fill="#F7F7D3"/>
<rect x="305.561" y="15.5073" width="2.61605" height="54.483" fill="#F7F7D3"/>
<rect x="308.174" y="18.2351" width="2.61605" height="49.0347" fill="#F7F7D3"/>
<rect x="9.95219" y="18.2351" width="2.61605" height="49.0347" fill="#F7F7D3"/>
<rect x="12.5709" y="15.5073" width="2.61605" height="54.483" fill="#F7F7D3"/>
<rect x="15.1782" y="12.7805" width="5.2321" height="59.9313" fill="#F7F7D3"/>
</svg>
