<svg width="68" height="69" viewBox="0 0 68 69" fill="none" xmlns="http://www.w3.org/2000/svg">
<g clip-path="url(#clip0_52_13397)">
<path d="M64.6751 51.9516H61.4286V45.4798H58.2034V39.0293H54.9569V32.5575H51.7316V26.0858H48.5063V19.614H45.2598V13.1423H42.0346V6.69173H38.8093V3.44524H35.5628V0.219971H32.3376V3.44524H29.0911V6.69173H25.8658V13.1423H22.6405V19.614H19.394V26.0858H16.1688V32.5575H12.9223V39.0293H9.69702V45.4798H6.47175V51.9516H3.22527V58.4233H0V64.8951H3.22527V68.1203H64.6751V64.8951H67.9004V58.4233H64.6751V51.9516ZM42.0346 58.4233H38.8093V61.6486H29.0911V58.4233H25.8658V48.7263H29.0911V45.4798H38.8093V48.7263H42.0346V58.4233ZM42.0346 35.7828H38.8093V42.2545H29.0911V35.7828H25.8658V22.8605H29.0911V19.614H38.8093V22.8605H42.0346V35.7828Z" fill="white"/>
<path d="M38.8089 26.0879H35.5624V32.5595H38.8089V26.0879Z" fill="white"/>
<path d="M35.5619 22.8594H32.3365V26.0847H35.5619V22.8594Z" fill="white"/>
</g>
<defs>
<clipPath id="clip0_52_13397">
<rect width="67.9004" height="67.9004" fill="white" transform="translate(0 0.217285)"/>
</clipPath>
</defs>
</svg>
